<svg width="100" height="100" viewBox="0 0 100 100" fill="none" xmlns="http://www.w3.org/2000/svg">
<path fill-rule="evenodd" clip-rule="evenodd" d="M6.2381 46.6539C5.72227 46.5357 5.16676 46.6603 4.81167 47.0527L1.10285 51.1509C0.622459 51.6817 0.663346 52.5015 1.19418 52.9819L33.7064 82.405C34.7073 83.3108 37.0529 82.0668 37.5356 80.8061C38.1115 79.3023 39.2764 77.8762 41.2286 76.7491C46.043 73.9695 50.2593 76.118 52.0483 79.2166C53.8372 82.3152 53.3843 86.685 48.5699 89.4646C48.1491 89.7075 47.7361 89.9146 47.3316 90.0881C46.1312 90.6029 45.2907 92.8885 46.2591 93.7649L51.8295 98.8061C52.3603 99.2864 53.1801 99.2456 53.6605 98.7147L82.3906 66.9682C82.8753 66.4326 82.82 65.608 82.3668 65.0456C82.0904 64.7026 81.8404 64.3359 81.6189 63.9523C79.8788 60.9383 79.7188 56.5729 83.9575 54.1257C86.928 52.4107 89.7298 52.9824 91.7394 54.5153C92.3474 54.9791 93.233 54.9875 93.746 54.4206L98.7104 48.935C99.1908 48.4041 99.1499 47.5844 98.6191 47.104L68.6398 19.9732C68.1973 19.5727 67.5113 19.6143 66.9944 19.9128V19.9128C65.4269 20.8178 64.2184 20.2366 63.6615 19.272C63.3529 18.7375 63.2267 18.0546 63.442 17.398C63.6999 16.6117 63.8303 15.6207 63.2168 15.0655L47.9838 1.27979C47.4529 0.799398 46.6332 0.840287 46.1528 1.37112L14.2213 36.6551C13.9303 36.9766 13.8244 37.4215 13.9072 37.8472C14.5325 41.059 13.7855 44.1839 10.7801 45.9191C9.23576 46.8107 7.69651 46.9881 6.2381 46.6539ZM70.2019 45.8356C72.6614 44.4157 72.9336 42.2541 72.0608 40.7424C71.188 39.2306 69.0797 38.212 66.6202 39.632C64.1608 41.0519 64.1018 43.3219 64.9746 44.8336C65.3436 45.4728 65.8954 46.0044 66.5953 46.2979C66.9859 46.4617 67.2212 47.0313 67.0482 47.418V47.418C66.3086 49.0701 67.1238 50.2632 68.1371 50.7168C69.1504 51.1703 70.4669 50.9314 71.2064 49.2793C71.9459 47.6272 71.2811 46.4103 70.2678 45.9567C70.2484 45.948 70.2288 45.9396 70.209 45.9314C70.1686 45.9147 70.164 45.8575 70.2019 45.8356V45.8356ZM63.0365 72.2896C65.2301 71.0231 65.4736 69.0962 64.6957 67.7489C63.9179 66.4016 62.0381 65.4943 59.8444 66.7608C57.6507 68.0273 57.5974 70.0508 58.3753 71.398C59.1531 72.7453 60.8428 73.5561 63.0365 72.2896ZM43.6013 57.2472C46.9436 55.3175 47.3147 52.3818 46.1296 50.3293C44.9446 48.2767 42.0806 46.8945 38.7383 48.8242C35.396 50.7539 35.3146 53.8366 36.4996 55.8892C37.6847 57.9417 40.259 59.1769 43.6013 57.2472ZM47.7535 30.3623C48.6704 31.9504 48.3828 34.2221 45.7958 35.7157C43.2087 37.2093 41.2165 36.2539 40.2996 34.6658C39.3827 33.0777 39.4461 30.6923 42.0332 29.1987C44.6202 27.705 46.8366 28.7742 47.7535 30.3623Z" fill="#FFB428"/>
</svg>
