<svg width="91" height="151" viewBox="0 0 91 151" fill="none" xmlns="http://www.w3.org/2000/svg">
<path d="M87.5153 131.642C69.4738 136.891 63.531 127.931 63.531 127.931C45.3875 80.4696 50.8796 74.7991 50.8796 74.7991C77.7469 47.3238 41.5466 0.795284 41.5466 0.795284L0.460098 14.3018C0.460098 14.3018 -1.06971 73.2334 36.8595 79.408C36.8595 79.408 44.6427 80.7144 58.1992 129.684C58.1992 129.684 58.7338 140.421 41.0969 146.901C41.0969 146.901 36.8526 149.888 42.1766 150.185C46.6448 150.433 61.2797 145.577 65.8642 144.011C70.4836 142.551 85.145 137.776 88.595 134.926C92.704 131.528 87.5153 131.642 87.5153 131.642Z" fill="#CA2327"/>
</svg>
