<svg width="197" height="60" viewBox="0 0 197 60" fill="none" xmlns="http://www.w3.org/2000/svg">
<path d="M40.124 29.9662C40.1607 27.2233 41.6541 24.6896 44.081 23.253C42.543 21.138 40.0594 19.8451 37.3793 19.7643C34.5596 19.4794 31.8261 21.389 30.3892 21.389C28.9246 21.389 26.7123 19.7926 24.3301 19.8398C21.1957 19.9373 18.3444 21.6117 16.8194 24.2504C13.572 29.6642 15.9943 37.6208 19.1051 41.9969C20.6615 44.1398 22.4804 46.5335 24.8605 46.4486C27.1896 46.3556 28.0594 45.0185 30.8708 45.0185C33.6561 45.0185 34.4722 46.4486 36.9006 46.3946C39.3998 46.3556 40.9744 44.2422 42.4761 42.0791C43.5944 40.5522 44.4549 38.8646 45.0258 37.079C42.0575 35.8701 40.1275 33.0695 40.124 29.9662Z" fill="#9E8268"/>
<path d="M35.5374 16.8865C36.9 15.3113 37.5713 13.2867 37.4088 11.2427C35.3269 11.4532 33.4039 12.4113 32.0228 13.926C30.6591 15.4205 29.9682 17.3756 30.1024 19.3608C32.2121 19.3818 34.2153 18.4698 35.5374 16.8865Z" fill="#9E8268"/>
<path d="M69.5669 41.0241H61.6189L59.7102 46.451H56.3438L63.872 26.373H67.3696L74.8978 46.451H71.474L69.5669 41.0241ZM62.4421 38.5199H68.7422L65.6364 29.7126H65.5495L62.4421 38.5199Z" fill="#9E8268"/>
<path d="M91.1552 39.1319C91.1552 43.6808 88.6266 46.6034 84.8109 46.6034C82.8386 46.7028 80.9807 45.7081 80.0277 44.0424H79.9555V51.2929H76.835V31.8119H79.8555V34.2466H79.9129C80.9083 32.5914 82.7681 31.5971 84.7535 31.6587C88.6118 31.6587 91.1552 34.5956 91.1552 39.1319ZM87.9478 39.1319C87.9478 36.1682 86.3572 34.2198 83.9303 34.2198C81.5461 34.2198 79.9424 36.2092 79.9424 39.1319C79.9424 42.0814 81.5461 44.0566 83.9303 44.0566C86.3572 44.0566 87.9478 42.1224 87.9478 39.1319Z" fill="#9E8268"/>
<path d="M107.887 39.1319C107.887 43.6808 105.358 46.6034 101.542 46.6034C99.57 46.7028 97.7122 45.708 96.7591 44.0424H96.6869V51.2929H93.5664V31.8119H96.5869V34.2466H96.6443C97.6397 32.5914 99.4995 31.5971 101.485 31.6587C105.343 31.6587 107.887 34.5955 107.887 39.1319ZM104.679 39.1319C104.679 36.1682 103.089 34.2198 100.662 34.2198C98.2775 34.2198 96.6738 36.2092 96.6738 39.1319C96.6738 42.0813 98.2775 44.0566 100.662 44.0566C103.089 44.0566 104.679 42.1224 104.679 39.1319H104.679Z" fill="#9E8268"/>
<path d="M118.945 40.8566C119.177 42.8476 121.185 44.1549 123.93 44.1549C126.56 44.1549 128.453 42.8476 128.453 41.0523C128.453 39.4939 127.311 38.5607 124.609 37.9212L121.907 37.2944C118.078 36.4039 116.3 34.6797 116.3 31.8818C116.3 28.4176 119.436 26.0381 123.888 26.0381C128.294 26.0381 131.314 28.4176 131.416 31.8818H128.266C128.077 29.8781 126.357 28.6686 123.843 28.6686C121.33 28.6686 119.609 29.8923 119.609 31.6734C119.609 33.0928 120.708 33.9281 123.396 34.5675L125.693 35.1107C129.971 36.0849 131.749 37.7396 131.749 40.6764C131.749 44.4327 128.641 46.7854 123.699 46.7854C119.075 46.7854 115.953 44.488 115.751 40.8564L118.945 40.8566Z" fill="#9E8268"/>
<path d="M138.484 28.3486V31.8128H141.375V34.1923H138.484V42.2623C138.484 43.516 139.063 44.1002 140.334 44.1002C140.677 44.0944 141.02 44.0712 141.36 44.0307V46.3959C140.789 46.4987 140.208 46.5453 139.627 46.5349C136.549 46.5349 135.349 45.4217 135.349 42.5828V34.1923H133.139V31.8128H135.349V28.3486H138.484Z" fill="#9E8268"/>
<path d="M143.049 39.1328C143.049 34.527 145.866 31.6328 150.259 31.6328C154.667 31.6328 157.471 34.527 157.471 39.1328C157.471 43.7512 154.681 46.6328 150.259 46.6328C145.838 46.6328 143.049 43.7512 143.049 39.1328ZM154.291 39.1328C154.291 35.9733 152.787 34.1086 150.259 34.1086C147.73 34.1086 146.228 35.9875 146.228 39.1328C146.228 42.3049 147.73 44.1554 150.259 44.1554C152.787 44.1554 154.291 42.3049 154.291 39.1328H154.291Z" fill="#9E8268"/>
<path d="M160.045 31.8125H163.021V34.304H163.093C163.508 32.7001 165.035 31.5962 166.75 31.6593C167.11 31.6581 167.468 31.6957 167.819 31.7714V34.5819C167.365 34.4484 166.892 34.387 166.417 34.4004C165.5 34.3645 164.612 34.7166 163.987 35.3641C163.362 36.0116 163.062 36.8898 163.165 37.7682V46.4509H160.045L160.045 31.8125Z" fill="#9E8268"/>
<path d="M182.206 42.1518C181.786 44.8091 179.098 46.6328 175.66 46.6328C171.237 46.6328 168.492 43.7796 168.492 39.2023C168.492 34.6107 171.252 31.6328 175.528 31.6328C179.734 31.6328 182.379 34.4149 182.379 38.8533V39.8828H171.642V40.0644C171.542 41.1542 171.933 42.2329 172.715 43.0262C173.498 43.8195 174.596 44.2509 175.732 44.2107C177.246 44.3473 178.674 43.51 179.243 42.1517L182.206 42.1518ZM171.657 37.7828L179.257 37.7828C179.314 36.8035 178.944 35.8459 178.236 35.1407C177.528 34.4354 176.547 34.0465 175.528 34.0675C174.502 34.0616 173.516 34.4508 172.789 35.1484C172.062 35.8461 171.654 36.7945 171.657 37.7828Z" fill="#9E8268"/>
<path d="M60.224 15.3381H61.5637C62.03 15.394 62.4992 15.2597 62.858 14.9676C63.2168 14.6755 63.4324 14.2522 63.4527 13.8002C63.4527 12.9105 62.7575 12.3358 61.5785 12.3358C61.1011 12.2715 60.6171 12.3958 60.2363 12.6804C59.8556 12.9649 59.6104 13.3856 59.5566 13.8468H58.0857C58.1369 13.0091 58.5472 12.2296 59.2185 11.6946C59.8898 11.1595 60.7618 10.9171 61.626 11.0252C63.5986 11.0252 64.9876 12.0886 64.9876 13.6194C64.9971 14.6762 64.2386 15.5958 63.1674 15.826V15.9397C64.4503 15.9945 65.4462 17.037 65.3959 18.2726C65.3038 19.1345 64.855 19.9244 64.151 20.4641C63.447 21.0037 62.5469 21.2476 61.6539 21.1408C60.7589 21.2582 59.8527 21.0206 59.1431 20.4824C58.4336 19.9441 57.9815 19.1514 57.8906 18.286H59.3845C59.4747 19.2089 60.3552 19.8042 61.6539 19.8042C62.9526 19.8042 63.8004 19.1356 63.8004 18.1929C63.8004 17.2369 63.0018 16.6479 61.6064 16.6479H60.224V15.3381Z" fill="#9E8268"/>
<path d="M67.0908 18.8482C67.0908 17.5376 68.1058 16.7821 69.903 16.6748L71.9511 16.5611V15.9327C71.9511 15.1637 71.4247 14.7295 70.4032 14.7295C69.5702 14.7295 68.9946 15.024 68.8273 15.5387H67.3827C67.5352 14.2882 68.7585 13.4861 70.4737 13.4861C72.3693 13.4861 73.4384 14.3947 73.4384 15.9327V20.9071H72.0003V19.884H71.8823C71.3944 20.6312 70.5268 21.0678 69.6112 21.0271C68.9693 21.0914 68.3291 20.8912 67.8489 20.4761C67.3688 20.0609 67.0933 19.4696 67.0908 18.8482ZM71.9511 18.2261V17.6174L70.1047 17.7311C69.0634 17.7982 68.5911 18.1392 68.5911 18.7811C68.5911 19.4363 69.1815 19.8176 69.9932 19.8176C70.4738 19.8645 70.9535 19.7215 71.3226 19.4215C71.6917 19.1215 71.9185 18.6901 71.9511 18.2261Z" fill="#9E8268"/>
<path d="M77.3994 14.8362V20.9072H75.9072V13.6267H80.8857V14.8361L77.3994 14.8362Z" fill="#9E8268"/>
<path d="M89.9271 17.2642C89.9271 19.5774 88.712 21.0277 86.8033 21.0277C85.8467 21.0906 84.939 20.6135 84.4765 19.8048H84.3584V23.3282H82.8662V13.6271H84.3027V14.8303H84.4142C84.8844 13.9944 85.8016 13.483 86.7886 13.5064C88.712 13.5063 89.9271 14.9503 89.9271 17.2642ZM88.3923 17.2642C88.3923 15.7263 87.6363 14.7971 86.3721 14.7971C85.1161 14.7971 84.3305 15.7461 84.3305 17.2706C84.3305 18.7879 85.116 19.7377 86.3655 19.7377C87.6363 19.7376 88.3923 18.8084 88.3923 17.2642Z" fill="#9E8268"/>
<path d="M91.9163 23.5149V22.2778C92.0777 22.2975 92.2404 22.3065 92.4032 22.3046C93.0615 22.3516 93.651 21.9136 93.7708 21.2885L93.8823 20.9341L91.1455 13.6267H92.7705L94.6662 19.4096H94.7842L96.6733 13.6267H98.2556L95.4369 21.208C94.7908 22.9796 94.0759 23.548 92.5345 23.548C92.4098 23.548 92.0556 23.5346 91.9163 23.5149Z" fill="#9E8268"/>
<path d="M99.418 18.8406H100.904C101.05 19.4824 101.674 19.8171 102.548 19.8171C103.542 19.8171 104.152 19.3955 104.152 18.7403C104.152 18.0385 103.604 17.7037 102.548 17.7037H101.417V16.5874H102.529C103.431 16.5874 103.89 16.2535 103.89 15.6448C103.89 15.1103 103.445 14.7022 102.529 14.7022C101.694 14.7022 101.084 15.0432 100.987 15.618H99.5492C99.7728 14.2441 101.098 13.2957 102.529 13.4856C104.326 13.4856 105.354 14.268 105.354 15.498C105.371 16.2038 104.874 16.8252 104.16 16.9885V17.1022C105.013 17.2081 105.649 17.9122 105.639 18.7403C105.639 20.1244 104.416 21.0401 102.548 21.0401C100.897 21.04 99.5557 20.3113 99.418 18.8406Z" fill="#9E8268"/>
<path d="M107.787 20.9072V13.6267H109.266V18.6344H109.384L112.869 13.6267H114.348V20.9073H112.869V15.8728H112.757L109.266 20.9073L107.787 20.9072Z" fill="#9E8268"/>
<path d="M122.499 14.8361H120.118V20.9072H118.624V14.8361H116.243V13.6267H122.499V14.8361Z" fill="#9E8268"/>
<path d="M130.535 18.9415C130.116 20.3146 128.735 21.2016 127.257 21.0478C126.249 21.0734 125.28 20.671 124.608 19.9473C123.935 19.2237 123.627 18.2519 123.765 17.2899C123.63 16.3252 123.938 15.3519 124.606 14.6221C125.275 13.8923 126.24 13.4779 127.251 13.4862C129.355 13.4862 130.626 14.8702 130.626 17.1564V17.6578H125.286V17.7383C125.239 18.2787 125.43 18.8134 125.814 19.2106C126.197 19.6078 126.737 19.8306 127.3 19.8241C128.03 19.9081 128.74 19.5594 129.097 18.9414L130.535 18.9415ZM125.286 16.5952H129.104C129.142 16.1013 128.962 15.6149 128.608 15.2558C128.254 14.8966 127.758 14.6981 127.244 14.7091C126.723 14.7023 126.22 14.8988 125.852 15.254C125.483 15.6093 125.279 16.093 125.286 16.5952H125.286Z" fill="#9E8268"/>
<path d="M136.862 13.6267H140.271C141.75 13.6267 142.618 14.3483 142.618 15.478C142.623 16.2167 142.09 16.858 141.341 17.0159V17.1296C142.258 17.1854 142.968 17.9233 142.957 18.808C142.957 20.0782 141.965 20.9072 140.306 20.9072H136.862V13.6267ZM138.341 14.7296V16.6148H139.82C140.722 16.6148 141.154 16.2809 141.154 15.6651C141.154 15.0975 140.778 14.7296 139.986 14.7296H138.341ZM138.341 17.6712V19.8043H140.111C140.993 19.8043 141.465 19.4294 141.465 18.7409C141.465 18.0123 140.931 17.6712 139.924 17.6712L138.341 17.6712Z" fill="#9E8268"/>
<rect x="0.596386" y="0.596386" width="195.807" height="58.8072" rx="9.40361" stroke="#55371B" stroke-width="1.19277"/>
</svg>
