<svg width="197" height="60" viewBox="0 0 197 60" fill="none" xmlns="http://www.w3.org/2000/svg">
<path d="M98.7392 32.2985C95.1782 32.2985 92.3592 34.9922 92.3592 38.7335C92.3592 42.3251 95.1782 45.1685 98.7392 45.1685C102.3 45.1685 105.119 42.4748 105.119 38.7335C105.119 34.8426 102.3 32.2985 98.7392 32.2985ZM98.7392 42.4748C96.8103 42.4748 95.1782 40.8286 95.1782 38.5838C95.1782 36.3391 96.8103 34.6929 98.7392 34.6929C100.668 34.6929 102.3 36.1894 102.3 38.5838C102.3 40.8286 100.668 42.4748 98.7392 42.4748ZM84.9406 32.2985C81.3796 32.2985 78.5606 34.9922 78.5606 38.7335C78.5606 42.3251 81.3796 45.1685 84.9406 45.1685C88.5015 45.1685 91.3206 42.4748 91.3206 38.7335C91.3206 34.8426 88.5015 32.2985 84.9406 32.2985ZM84.9406 42.4748C83.0117 42.4748 81.3796 40.8286 81.3796 38.5838C81.3796 36.3391 83.0117 34.6929 84.9406 34.6929C86.8694 34.6929 88.5015 36.1894 88.5015 38.5838C88.5015 40.8286 86.8694 42.4748 84.9406 42.4748ZM68.4713 34.244V36.9377H74.8513C74.7029 38.4342 74.1094 39.6314 73.3676 40.3797C72.4773 41.2776 70.9936 42.3251 68.4713 42.3251C64.4652 42.3251 61.4978 39.1825 61.4978 35.1419C61.4978 31.1013 64.6136 27.9586 68.4713 27.9586C70.5485 27.9586 72.1806 28.8565 73.3676 29.9041L75.2964 27.9586C73.6643 26.4621 71.5871 25.2649 68.6196 25.2649C63.2782 25.2649 58.6787 29.7544 58.6787 35.1419C58.6787 40.5293 63.2782 45.0188 68.6196 45.0188C71.5871 45.0188 73.6643 44.1209 75.4448 42.1755C77.2252 40.3797 77.8187 37.8356 77.8187 35.8901C77.8187 35.2915 77.8187 34.6929 77.6703 34.244H68.4713ZM135.832 36.3391C135.239 34.8426 133.755 32.2985 130.491 32.2985C127.227 32.2985 124.556 34.8426 124.556 38.7335C124.556 42.3251 127.227 45.1685 130.788 45.1685C133.607 45.1685 135.387 43.3727 135.981 42.3251L133.903 40.8286C133.162 41.8762 132.271 42.6244 130.788 42.6244C129.304 42.6244 128.414 42.0258 127.672 40.679L136.129 37.0873L135.832 36.3391ZM127.227 38.4342C127.227 36.0398 129.155 34.6929 130.491 34.6929C131.529 34.6929 132.568 35.2915 132.865 36.0398L127.227 38.4342ZM120.253 44.5699H123.072V25.8635H120.253V44.5699ZM115.802 33.6454C115.06 32.8971 113.873 32.1488 112.389 32.1488C109.274 32.1488 106.306 34.9922 106.306 38.5838C106.306 42.1755 109.125 44.8692 112.389 44.8692C113.873 44.8692 115.06 44.1209 115.654 43.3727H115.802V44.2706C115.802 46.665 114.467 48.0119 112.389 48.0119C110.757 48.0119 109.57 46.8147 109.274 45.7671L106.9 46.8147C107.642 48.4608 109.422 50.5559 112.538 50.5559C115.802 50.5559 118.473 48.6105 118.473 43.9713V32.5978H115.802V33.6454ZM112.538 42.4748C110.609 42.4748 108.977 40.8286 108.977 38.5838C108.977 36.3391 110.609 34.6929 112.538 34.6929C114.467 34.6929 115.95 36.3391 115.95 38.5838C115.95 40.8286 114.467 42.4748 112.538 42.4748ZM148.741 25.8635H142.064V44.5699H144.883V37.5363H148.741C151.856 37.5363 154.824 35.2915 154.824 31.6999C154.824 28.1083 151.856 25.8635 148.741 25.8635ZM148.889 34.8426H144.883V28.4076H148.889C150.966 28.4076 152.153 30.2034 152.153 31.5502C152.005 33.1964 150.818 34.8426 148.889 34.8426ZM165.952 32.1488C163.875 32.1488 161.797 33.0468 161.055 34.9922L163.578 36.0398C164.171 34.9922 165.062 34.6929 166.1 34.6929C167.584 34.6929 168.919 35.5908 169.068 37.0873V37.237C168.622 36.9377 167.435 36.4887 166.248 36.4887C163.578 36.4887 160.907 37.9852 160.907 40.679C160.907 43.223 163.133 44.8692 165.507 44.8692C167.435 44.8692 168.326 43.9713 169.068 43.0734H169.216V44.5699H171.887V37.3866C171.59 34.0943 169.068 32.1488 165.952 32.1488ZM165.655 42.4748C164.765 42.4748 163.429 42.0258 163.429 40.8286C163.429 39.3321 165.062 38.8831 166.397 38.8831C167.584 38.8831 168.177 39.1824 168.919 39.4818C168.622 41.2776 167.139 42.4748 165.655 42.4748ZM181.234 32.5978L178.118 40.679H177.97L174.706 32.5978H171.738L176.635 43.9713L173.815 50.2566H176.635L184.202 32.5978H181.234ZM156.308 44.5699H159.127V25.8635H156.308V44.5699Z" fill="#9E8268"/>
<path d="M13.1286 10.8977C12.6835 11.3467 12.3867 12.0949 12.3867 12.9928V46.0657C12.3867 46.9636 12.6835 47.7119 13.1286 48.1609L13.277 48.3105L31.6751 29.7538V29.6041V29.4545L13.1286 10.8977Z" fill="url(#paint0_linear_14_5794)"/>
<path d="M37.7581 36.0402L31.6748 29.9045V29.6052V29.4555L37.7581 23.3198L37.9064 23.4695L45.1767 27.6597C47.2539 28.8569 47.2539 30.8024 45.1767 31.9996L37.7581 36.0402Z" fill="url(#paint1_linear_14_5794)"/>
<path d="M37.907 35.8898L31.6754 29.6045L13.1289 48.3109C13.8708 49.0591 14.9094 49.0591 16.2447 48.4605L37.907 35.8898Z" fill="url(#paint2_linear_14_5794)"/>
<path d="M37.907 23.3192L16.2447 10.8982C14.9094 10.1499 13.8708 10.2996 13.1289 11.0478L31.6754 29.6046L37.907 23.3192Z" fill="url(#paint3_linear_14_5794)"/>
<path opacity="0.2" d="M37.7577 35.7402L16.2437 48.0116C15.0568 48.7599 14.0182 48.6102 13.2763 48.0116L13.1279 48.1613L13.2763 48.3109C14.0182 48.9095 15.0568 49.0592 16.2437 48.3109L37.7577 35.7402Z" fill="black"/>
<path opacity="0.12" d="M13.1286 48.0111C12.6835 47.5622 12.5352 46.8139 12.5352 45.916V46.0657C12.5352 46.9636 12.8319 47.7118 13.277 48.1608V48.0111H13.1286Z" fill="black"/>
<path opacity="0.12" d="M45.1784 31.55L37.7598 35.7402L37.9081 35.8898L45.1784 31.6996C46.217 31.101 46.6621 30.3527 46.6621 29.6045C46.6621 30.3527 46.0686 30.9514 45.1784 31.55Z" fill="black"/>
<path opacity="0.25" d="M16.2435 11.0477L45.176 27.659C46.0663 28.2576 46.6598 28.8562 46.6598 29.6045C46.6598 28.8562 46.2146 28.108 45.176 27.5093L16.2435 10.8981C14.1663 9.70086 12.5342 10.7484 12.5342 13.1428V13.2925C12.5342 10.8981 14.1663 9.85052 16.2435 11.0477Z" fill="#9E8268"/>
<path d="M60.1626 21.0742H59.124V18.0812H60.0143C60.7561 17.4826 61.2012 16.2854 61.2012 14.6392V10.1497H67.1361V18.0812H68.1747V21.0742H67.1361V19.1287H60.311V21.0742H60.1626ZM62.2398 14.6392C62.2398 15.9861 61.9431 17.1833 61.3496 18.0812H65.8008V11.3469H62.0915V14.6392H62.2398Z" fill="#9E8268" stroke="#9E8268" stroke-width="0.460465" stroke-miterlimit="10"/>
<path d="M76.9282 17.9315C76.0379 18.8294 74.9993 19.2784 73.664 19.2784C72.3286 19.2784 71.29 18.8294 70.3998 17.9315C69.5096 17.0336 69.0645 15.986 69.0645 14.6392C69.0645 13.2923 69.5096 12.2448 70.3998 11.3469C71.29 10.449 72.3286 10 73.664 10C74.9993 10 76.0379 10.449 76.9282 11.3469C77.8184 12.2448 78.2635 13.2923 78.2635 14.6392C78.2635 15.986 77.8184 17.0336 76.9282 17.9315ZM71.29 17.1833C71.8835 17.7819 72.7738 18.2308 73.664 18.2308C74.5542 18.2308 75.4445 17.9315 76.0379 17.1833C76.6314 16.5847 77.0765 15.6867 77.0765 14.6392C77.0765 13.5916 76.7798 12.6937 76.0379 12.0951C75.4445 11.4965 74.5542 11.0476 73.664 11.0476C72.7738 11.0476 71.8835 11.3469 71.29 12.0951C70.6965 12.6937 70.2514 13.5916 70.2514 14.6392C70.2514 15.6867 70.5482 16.5847 71.29 17.1833Z" fill="#9E8268" stroke="#9E8268" stroke-width="0.460465" stroke-miterlimit="10"/>
<path d="M84.0507 19.2784C82.7154 19.2784 81.6768 18.8294 80.7865 17.9315C79.8963 17.0336 79.4512 15.986 79.4512 14.6392C79.4512 13.2923 79.8963 12.2448 80.7865 11.3469C81.6768 10.449 82.7154 10 84.0507 10C85.3861 10 86.4247 10.449 87.3149 11.4965L86.573 12.2448C85.9796 11.4965 85.0893 11.0476 84.0507 11.0476C83.0121 11.0476 82.2702 11.3469 81.5284 12.0951C80.7865 12.6937 80.4898 13.5916 80.4898 14.6392C80.4898 15.6867 80.7865 16.5847 81.5284 17.1833C82.1219 17.7819 83.0121 18.2308 84.0507 18.2308C85.0893 18.2308 85.9795 17.7819 86.7214 16.884L87.4633 17.6322C87.0182 18.0812 86.573 18.5301 85.9795 18.8294C85.3861 19.1287 84.7926 19.2784 84.0507 19.2784Z" fill="#9E8268" stroke="#9E8268" stroke-width="0.460465" stroke-miterlimit="10"/>
<path d="M92.2113 19.1287H91.0243V11.1972H88.502V10.1497H94.5852V11.1972H92.0629V19.1287H92.2113Z" fill="#9E8268" stroke="#9E8268" stroke-width="0.460465" stroke-miterlimit="10"/>
<path d="M102.448 10.1497L99.0355 17.7819C98.5904 18.8294 97.8485 19.428 96.9583 19.428C96.6615 19.428 96.3648 19.428 96.068 19.2784L96.3648 18.2308C96.5131 18.3805 96.8099 18.3805 96.9583 18.3805C97.255 18.3805 97.4034 18.3805 97.5518 18.2308C97.7001 18.0812 97.8485 17.9315 97.9969 17.6322L98.2936 16.884L95.3262 10.2993H96.6615L98.8871 15.3875L100.964 10.2993H102.448V10.1497Z" fill="#9E8268" stroke="#9E8268" stroke-width="0.460465" stroke-miterlimit="10"/>
<path d="M103.785 19.1287V10.1497H110.165V19.1287H108.978V11.1972H104.824V19.1287H103.785Z" fill="#9E8268" stroke="#9E8268" stroke-width="0.460465" stroke-miterlimit="10"/>
<path d="M112.241 19.1287V10.1497H113.428V14.0406H117.879V10.1497H119.066V19.1287H117.879V15.0881H113.428V19.1287H112.241Z" fill="#9E8268" stroke="#9E8268" stroke-width="0.460465" stroke-miterlimit="10"/>
<path d="M128.415 17.9315C127.525 18.8294 126.487 19.2784 125.151 19.2784C123.816 19.2784 122.777 18.8294 121.887 17.9315C120.997 17.0336 120.552 15.986 120.552 14.6392C120.552 13.2923 120.997 12.2448 121.887 11.3469C122.777 10.449 123.816 10 125.151 10C126.487 10 127.525 10.449 128.415 11.3469C129.306 12.2448 129.751 13.2923 129.751 14.6392C129.602 15.986 129.157 17.0336 128.415 17.9315ZM122.629 17.1833C123.222 17.7819 124.113 18.2308 125.003 18.2308C125.893 18.2308 126.783 17.9315 127.377 17.1833C127.97 16.5847 128.415 15.6867 128.415 14.6392C128.415 13.5916 128.119 12.6937 127.377 12.0951C126.783 11.4965 125.893 11.0476 125.003 11.0476C124.113 11.0476 123.222 11.3469 122.629 12.0951C122.035 12.6937 121.59 13.5916 121.59 14.6392C121.59 15.6867 122.035 16.5847 122.629 17.1833Z" fill="#9E8268" stroke="#9E8268" stroke-width="0.460465" stroke-miterlimit="10"/>
<path d="M134.35 19.1287V10.1497H137.614C138.356 10.1497 138.949 10.449 139.394 10.8979C139.839 11.3469 140.136 11.9455 140.136 12.6937C140.136 13.1427 139.988 13.442 139.839 13.8909C139.691 14.1902 139.394 14.4895 138.949 14.6392C139.394 14.7888 139.691 15.0881 139.988 15.3874C140.285 15.6868 140.433 16.1357 140.433 16.7343C140.433 17.4826 140.136 18.0812 139.691 18.5301C139.098 18.9791 138.504 19.2784 137.762 19.2784H134.35V19.1287ZM135.537 14.0406H137.614C138.059 14.0406 138.356 13.8909 138.652 13.5916C138.949 13.2923 139.098 12.993 139.098 12.6937C139.098 12.3944 138.949 12.0951 138.652 11.7958C138.356 11.4965 138.059 11.3469 137.614 11.3469H135.537V14.0406ZM135.537 18.0812H137.911C138.356 18.0812 138.652 17.9315 138.949 17.6322C139.246 17.3329 139.394 17.0336 139.394 16.5847C139.394 16.2854 139.246 15.8364 138.949 15.5371C138.652 15.2378 138.356 15.0881 137.911 15.0881H135.685V18.0812H135.537Z" fill="#9E8268" stroke="#9E8268" stroke-width="0.460465" stroke-miterlimit="10"/>
<rect x="0.596386" y="0.596386" width="195.807" height="58.8072" rx="9.40361" stroke="#55371B" stroke-width="1.19277"/>
<defs>
<linearGradient id="paint0_linear_14_5794" x1="30.0426" y1="12.708" x2="4.92842" y2="37.6075" gradientUnits="userSpaceOnUse">
<stop stop-color="#00A0FF"/>
<stop offset="0.00657445" stop-color="#00A1FF"/>
<stop offset="0.2601" stop-color="#00BEFF"/>
<stop offset="0.5122" stop-color="#00D2FF"/>
<stop offset="0.7604" stop-color="#00DFFF"/>
<stop offset="1" stop-color="#00E3FF"/>
</linearGradient>
<linearGradient id="paint1_linear_14_5794" x1="47.8984" y1="29.6073" x2="11.997" y2="29.6073" gradientUnits="userSpaceOnUse">
<stop stop-color="#FFE000"/>
<stop offset="0.4087" stop-color="#FFBD00"/>
<stop offset="0.7754" stop-color="#FFA500"/>
<stop offset="1" stop-color="#FF9C00"/>
</linearGradient>
<linearGradient id="paint2_linear_14_5794" x1="34.5345" y1="33.0406" x2="0.477744" y2="66.8063" gradientUnits="userSpaceOnUse">
<stop stop-color="#FF3A44"/>
<stop offset="1" stop-color="#C31162"/>
</linearGradient>
<linearGradient id="paint3_linear_14_5794" x1="8.52537" y1="-0.0619638" x2="23.7333" y2="15.0158" gradientUnits="userSpaceOnUse">
<stop stop-color="#32A071"/>
<stop offset="0.0685" stop-color="#2DA771"/>
<stop offset="0.4762" stop-color="#15CF74"/>
<stop offset="0.8009" stop-color="#06E775"/>
<stop offset="1" stop-color="#00F076"/>
</linearGradient>
</defs>
</svg>
