<svg width="48" height="48" viewBox="0 0 48 48" fill="none" xmlns="http://www.w3.org/2000/svg">
<circle cx="24" cy="24" r="23.5" stroke="#9E8268"/>
<path fill-rule="evenodd" clip-rule="evenodd" d="M41.6 24.5504V25.0592C38.5376 25.088 35.456 25.184 32.4512 25.7888C29.6384 26.3264 27.1232 28.3424 26.2016 31.0784C25.0496 34.4576 25.232 38.0768 25.0496 41.5904H25.0592L25.0496 41.6H24.5984C24.3008 37.8944 24.6656 34.0064 23.1968 30.4928C22.0928 27.8144 19.3856 26.096 16.5824 25.664C13.7504 25.2032 10.8704 25.0688 8.0096 25.0496H8V24.5504H8.0096C11.2256 24.5216 14.4896 24.464 17.6384 23.7152C20.288 23.0912 22.5248 21.0944 23.4176 18.512C24.5792 15.1424 24.3776 11.5136 24.5888 8H25.0592V8.0096C25.2512 11.4368 25.0688 14.96 26.1152 18.2816C26.96 20.9504 29.2544 23.0528 31.9616 23.7056C35.1104 24.464 38.3744 24.5216 41.6 24.5504Z" fill="#9E8268"/>
</svg>
