<svg width="70" height="45" viewBox="0 0 70 45" fill="none" xmlns="http://www.w3.org/2000/svg">
<g clip-path="url(#clip0_16_1295)">
<path d="M20.7639 21.5531H20.5994H16.8759H16.7136L16.6271 21.6901C15.4042 23.6615 15.0226 25.6456 15.6087 26.995C16.0178 27.9395 16.8612 28.57 18.1136 28.8694L18.1115 31.0263V31.0347V31.0432C18.1136 31.0917 18.122 31.5344 17.7383 31.6272C17.5569 31.6694 17.4009 31.6968 17.2744 31.7179C16.994 31.7642 16.7895 31.8001 16.7093 32.0109C16.6587 32.1417 16.6904 32.2787 16.8 32.4179L16.8865 32.5275H17.0277H20.4244H20.5636L20.6521 32.4179C20.7618 32.2808 20.7934 32.1438 20.7449 32.0151C20.6669 31.8064 20.4603 31.7727 20.2009 31.7284C20.0723 31.7073 19.91 31.6799 19.716 31.6314C19.4398 31.5639 19.3596 31.2645 19.3428 31.0221V28.8757C20.5783 28.5974 21.4154 27.988 21.8307 27.0624C22.7268 25.0657 21.3036 22.4492 20.8461 21.6944L20.7639 21.5531Z" fill="white"/>
<path fill-rule="evenodd" clip-rule="evenodd" d="M18.4066 28.6378L18.4045 31.0287C18.4045 31.0287 18.4467 31.7582 17.8078 31.9122C17.1542 32.0661 16.8527 32.0113 17.0298 32.2348H20.4265C20.6036 32.0134 20.3 32.0766 19.6464 31.9122C19.1635 31.7941 19.0687 31.286 19.0518 31.0308V28.6357C22.8955 27.9272 22.0669 24.2691 20.5973 21.8444H16.8738C15.362 24.286 14.5819 27.8724 18.4066 28.6378Z" fill="#CA2127"/>
<path d="M56.3311 29.9026V26.9023C56.3311 25.73 56.0148 22.4936 57.2335 21.9243C57.8913 21.6144 58.1106 21.0472 58.1802 20.208V16.8641C58.1612 16.8198 58.1127 16.8029 58.1127 16.7523C58.1127 16.6933 58.1 16.2421 58.1127 16.1894C58.1232 16.1345 58.119 16.1556 58.1991 16.0903C58.197 16.0418 58.2012 16.0101 58.1991 15.8731C58.235 15.6032 58.6546 15.6011 59.0341 15.6095C59.4115 15.6011 59.8332 15.6032 59.869 15.8731C59.8669 16.0101 59.869 16.0418 59.869 16.0903C59.9491 16.1556 59.9449 16.1345 59.9555 16.1894C59.966 16.2442 59.9555 16.6933 59.9555 16.7523L59.9154 16.8219V20.4526C60.0082 21.1589 60.2401 21.6481 60.8347 21.9285C62.0512 22.4999 61.735 25.7342 61.735 26.9065V29.9089H69.8735C68.9859 29.9089 66.829 29.3987 66.8058 27.7373L66.3335 12.5608C66.3335 10.9184 67.6892 10.1129 68.697 10.0729L57.225 10.0708L55.4118 14.1842L53.6133 14.1821L51.8043 10.0708L40.3323 10.0729C41.3401 10.1129 42.6958 10.9205 42.6958 12.5608L42.2235 27.7373C42.2003 29.3987 40.0434 29.9089 39.1558 29.9089H47.2943V26.9065C47.2943 25.7342 46.9781 22.4978 48.1946 21.9285C48.7871 21.6502 49.0211 21.161 49.1139 20.4526V16.8219L49.0738 16.7523C49.0738 16.6933 49.0633 16.2421 49.0738 16.1894C49.0844 16.1345 49.0802 16.1556 49.1603 16.0903C49.1603 16.0418 49.1624 16.0101 49.1603 15.8731C49.1961 15.6032 49.6178 15.6011 49.9952 15.6095C50.3747 15.6011 50.7943 15.6032 50.8302 15.8731C50.8281 16.0101 50.8323 16.0418 50.8302 16.0903C50.9103 16.1556 50.9061 16.1345 50.9166 16.1894C50.9293 16.2442 50.9166 16.6933 50.9166 16.7523C50.9166 16.8029 50.866 16.8198 50.8491 16.8641V20.208C50.9187 21.0493 51.138 21.6165 51.7958 21.9243C53.0145 22.4936 52.6982 25.73 52.6982 26.9023V29.9026H56.3311Z" fill="#F8B817"/>
<path fill-rule="evenodd" clip-rule="evenodd" d="M19.3723 13.3344C18.6786 12.7314 17.8732 12.1306 16.956 11.5677L18.7334 5.9044L19.3723 7.97278L21.7886 15.8161C21.35 15.2131 20.5087 14.2917 19.3723 13.3344ZM33.988 23.864C30.916 14.3676 27.1081 2.6279 27.0364 2.0291C26.8952 0.806211 28.0127 0.171573 28.6705 0.074585H14.1982C14.8033 0.169464 16.4099 0.645971 16.3193 2.0291C16.275 2.70591 15.8048 3.98573 15.6066 4.55079L13.8166 9.68693C12.387 8.80139 10.6117 8.01284 8.74578 7.59748C5.93102 6.99868 2.96657 7.24115 1.00784 10.0433C0.423801 10.8529 0.0759036 11.8671 0 12.9402V13.9733C0.219277 16.8344 2.34458 19.7125 6.89669 20.0498L7.01265 19.7483C5.90572 19.7968 4.74819 19.4552 3.69187 18.6941C1.26085 16.9356 0.628315 13.657 2.28133 11.3716C3.69398 9.41705 6.3253 8.82669 8.57711 9.79868C10.0235 10.2942 11.5732 11.1565 13.0048 12.0568L8.94398 23.7923C8.14066 25.9555 7.23615 28.1019 5.07922 29.1646C4.67651 29.3628 3.14578 29.9067 3.14578 29.9067H15.8407C14.6705 29.776 12.0307 28.8588 12.4419 26.6344C12.6295 25.6182 12.9331 24.2814 13.2262 23.2884L16.1907 13.9944C16.5364 14.201 16.8843 14.4266 17.2512 14.6902C17.947 15.1793 18.6617 15.7612 19.3723 16.4402C22.2651 19.1115 25.3476 23.0754 25.0271 26.3899C24.8374 28.3465 22.6425 29.8118 21.2488 29.9088H39.1852C39.1852 29.9088 37.9961 29.445 37.5575 29.2615C35.4217 28.357 34.6458 25.8016 33.988 23.864Z" fill="#F8B817"/>
<path d="M2.75819 12.2273C1.66813 14.3462 2.48831 17.1167 4.58831 18.4176C5.50126 18.9827 6.45427 19.1703 7.32927 19.0312L8.10939 15.6724C4.30578 15.8537 2.98379 12.8808 4.02957 11.2026C4.74855 10.0472 6.08319 9.92702 7.60548 10.3065C5.72265 9.66979 3.69222 10.4141 2.75819 12.2273Z" fill="#F8B817"/>
<path fill-rule="evenodd" clip-rule="evenodd" d="M69.6796 33.6175H3.1543V32.9575H69.6796V33.6175Z" fill="#CA2127"/>
<path d="M7.548 39.4772C7.51848 39.3844 7.45947 39.3212 7.37302 39.2874C7.28447 39.2537 7.18537 39.2347 7.07151 39.2347C6.95766 39.2347 6.87754 39.2347 6.83326 39.2347H6.45794V42.6525C6.45794 43.0974 6.48115 43.3862 6.52754 43.5148C6.62663 43.7847 6.85222 43.9176 7.20432 43.9176V44.2043H3.68115V43.9176C4.10284 43.9176 4.31157 43.6118 4.31157 42.9983V39.2347H3.68115V38.9606C3.94049 38.9079 4.11127 38.8215 4.19561 38.7013C4.27995 38.5832 4.33688 38.3576 4.3685 38.0203C4.40013 37.685 4.45706 37.4341 4.54139 37.2654C4.65525 37.0356 4.85133 36.8311 5.12965 36.6477C5.40796 36.4642 5.70736 36.3377 6.02784 36.2661C6.34832 36.1944 6.68354 36.1564 7.03354 36.1564C7.56065 36.1564 8.06459 36.2176 8.54742 36.3398L8.08776 37.9591L7.87061 37.9022V37.742C7.87061 37.5206 7.80525 37.3161 7.67663 37.1284C7.54591 36.9408 7.37724 36.848 7.16429 36.848C7.07151 36.848 6.98085 36.8796 6.88597 36.9408C6.7932 37.0019 6.71095 37.0778 6.64137 37.1706C6.57179 37.2633 6.52754 37.3688 6.50013 37.4911C6.47272 37.6133 6.46007 37.7441 6.46007 37.8811V38.1911V38.5474H6.81426H7.08625C7.26969 38.5474 7.41938 38.5368 7.53535 38.5179C7.65342 38.4989 7.76519 38.4504 7.87272 38.3745L7.548 39.4772ZM9.11878 43.7594C8.76667 43.5296 8.4989 43.2112 8.31547 42.8064C8.13204 42.4016 8.03926 41.9694 8.03926 41.5097C8.03926 40.5462 8.39139 39.7766 9.09561 39.2031C9.75344 38.6676 10.5757 38.3998 11.5646 38.3998C12.5281 38.3998 13.3125 38.6486 13.9176 39.1462C14.5754 39.6901 14.9043 40.4386 14.9043 41.3959C14.9043 42.3299 14.5564 43.0679 13.8607 43.6118C13.2176 44.1094 12.4185 44.3582 11.4613 44.3582C11.0248 44.3582 10.6052 44.3118 10.2046 44.2212C9.80194 44.1263 9.44137 43.9745 9.11878 43.7594ZM12.3806 42.8423C12.4501 42.682 12.5049 42.4796 12.5471 42.2329C12.5893 41.9883 12.6103 41.7627 12.6103 41.5561C12.6103 41.2651 12.5893 40.9784 12.5471 40.6959C12.5049 40.4133 12.4332 40.1688 12.3341 39.9621C12.235 39.7555 12.117 39.5953 11.9778 39.4793C11.8091 39.3423 11.6299 39.2727 11.4381 39.2727C11.0248 39.2727 10.7254 39.4983 10.542 39.9495C10.4049 40.2784 10.3354 40.6811 10.3354 41.1555C10.3354 41.6911 10.4155 42.1697 10.5757 42.5914C10.7971 43.1796 11.1345 43.4748 11.5857 43.4748C11.7543 43.4832 11.9146 43.4179 12.0685 43.2787C12.1929 43.1712 12.2962 43.0257 12.3806 42.8423ZM16.6965 43.7594C16.3444 43.5296 16.0766 43.2112 15.8932 42.8064C15.7097 42.4016 15.617 41.9694 15.617 41.5097C15.617 40.5462 15.9691 39.7766 16.6733 39.2031C17.3312 38.6676 18.1534 38.3998 19.1423 38.3998C20.1059 38.3998 20.8902 38.6486 21.4953 39.1462C22.1531 39.6901 22.4821 40.4386 22.4821 41.3959C22.4821 42.3299 22.1342 43.0679 21.4384 43.6118C20.7953 44.1094 19.9962 44.3582 19.039 44.3582C18.6025 44.3582 18.183 44.3118 17.7824 44.2212C17.3796 44.1263 17.017 43.9745 16.6965 43.7594ZM19.9562 42.8423C20.0257 42.682 20.0805 42.4796 20.1227 42.2329C20.1649 41.9883 20.186 41.7627 20.186 41.5561C20.186 41.2651 20.1649 40.9784 20.1227 40.6959C20.0805 40.4133 20.0088 40.1688 19.9097 39.9621C19.8106 39.7555 19.6926 39.5953 19.5534 39.4793C19.3847 39.3423 19.2055 39.2727 19.0137 39.2727C18.6004 39.2727 18.301 39.4983 18.1176 39.9495C17.9805 40.2784 17.911 40.6811 17.911 41.1555C17.911 41.6911 17.9911 42.1697 18.1513 42.5914C18.3727 43.1796 18.71 43.4748 19.1613 43.4748C19.3299 43.4832 19.4902 43.4179 19.6441 43.2787C19.7685 43.1712 19.8718 43.0257 19.9562 42.8423ZM27.6941 44.2423H26.6378C26.0875 44.2423 25.6763 44.2233 25.4086 44.1853C24.9489 44.1158 24.5631 43.9787 24.2489 43.7721C23.8968 43.5338 23.6333 43.2218 23.4562 42.8317C23.2812 42.4417 23.1926 42.02 23.1926 41.5688C23.1926 40.5272 23.5405 39.7281 24.2363 39.1694C24.8793 38.657 25.729 38.3998 26.7854 38.3998L27.5655 38.4462V38.2164V37.976C27.5655 37.6155 27.5318 37.3667 27.4622 37.2296C27.3546 37.0145 27.1375 36.9091 26.8086 36.9091V36.6224L29.7119 36.4621V42.9941C29.7119 43.6139 29.9227 43.9239 30.3423 43.9239V44.2106L27.6941 44.2423ZM27.2218 39.2031C26.9625 39.2031 26.7158 39.2748 26.4881 39.4224C26.2583 39.5679 26.0664 39.7618 25.9146 39.998C25.6321 40.4281 25.4908 40.9257 25.4908 41.4865C25.4908 41.9947 25.6025 42.4417 25.8239 42.8254C26.0917 43.2871 26.4628 43.517 26.9372 43.517C27.2049 43.517 27.3842 43.4284 27.4769 43.2513C27.5381 43.1374 27.5697 42.9308 27.5697 42.642V42.3763V39.2242L27.2218 39.2031ZM48.9724 41.2462L49.3857 39.6164C49.4173 39.4561 49.4468 39.2959 49.4784 39.1335C49.4784 39.0344 49.4363 38.9585 49.3519 38.91C49.2676 38.8594 49.1727 38.8362 49.0652 38.8362V38.5495H51.0387V38.8362C50.9248 38.8594 50.8299 38.8889 50.7583 38.929C50.6866 38.967 50.6149 39.0281 50.5453 39.1124C50.4378 39.2579 50.3302 39.4835 50.2248 39.7892C50.1869 39.8883 50.111 40.1371 49.995 40.5356L49.3287 42.7853C49.3203 42.817 49.2781 42.954 49.2022 43.1986C49.1263 43.4432 49.0884 43.5971 49.0884 43.6582C49.0884 43.8037 49.1537 43.8923 49.2845 43.9218V44.2085H46.9083V43.9218C47.0221 43.8986 47.0812 43.8417 47.0812 43.7489V43.5992L47.0095 43.3926L46.3917 41.476L45.7022 43.4853C45.6875 43.538 45.6727 43.5844 45.6622 43.6224C45.6516 43.6603 45.6453 43.6983 45.6453 43.7362C45.6453 43.8438 45.7107 43.9049 45.8414 43.9197V44.2064H43.3619V43.9197C43.4926 43.8965 43.558 43.8206 43.558 43.6898C43.558 43.6287 43.5432 43.5465 43.5116 43.4432C43.4799 43.3398 43.461 43.2682 43.4547 43.2302L42.7209 40.3142C42.5839 39.8019 42.4911 39.492 42.4447 39.3844C42.2845 39.0471 42.0462 38.8636 41.7321 38.8341V38.5474H45.1646V38.8341C44.8652 38.8341 44.7176 38.988 44.7176 39.2938C44.7408 39.4856 44.7682 39.6733 44.7977 39.8567L45.3248 42.4627L45.6348 41.4865L46.6784 38.5474H47.5387L48.6857 42.4627L48.9724 41.2462ZM51.2221 38.617L53.9884 38.4567V42.992C53.9884 43.6118 54.2034 43.9218 54.6315 43.9218V44.2085H51.2221V43.9218C51.6354 43.9218 51.842 43.6118 51.842 42.992V39.823C51.842 39.2115 51.6354 38.9037 51.2221 38.9037V38.617ZM51.7155 36.8269C51.7155 36.5127 51.8357 36.2618 52.0781 36.0742C52.3206 35.8865 52.6053 35.7938 52.9363 35.7938C53.2589 35.7938 53.5266 35.8908 53.7375 36.0868C53.9504 36.2829 54.0559 36.5401 54.0559 36.8627C54.0559 37.1621 53.9378 37.4025 53.6974 37.5859C53.4592 37.7694 53.183 37.8621 52.8667 37.8621C52.5441 37.8621 52.27 37.7694 52.0486 37.5859C51.8272 37.4004 51.7155 37.1474 51.7155 36.8269ZM55.6646 39.823C55.6646 39.2115 55.458 38.9037 55.0447 38.9037V38.617L57.4905 38.4567C57.5748 38.5938 57.6444 38.7793 57.6971 39.0133C57.7498 39.2474 57.7899 39.4245 57.811 39.5468C58.1019 39.2031 58.4351 38.9311 58.8104 38.7308C59.2236 38.5094 59.6516 38.3977 60.0965 38.3977C60.6784 38.3977 61.0875 38.5769 61.3257 38.9374C61.5324 39.2579 61.6357 39.7745 61.6357 40.4871V42.9898C61.6357 43.6097 61.8465 43.9197 62.2661 43.9197V44.2064H58.8336V43.9197C59.27 43.9197 59.4872 43.6097 59.4872 42.9898V40.7865V40.6263C59.4872 40.3269 59.464 40.1139 59.4176 39.9832C59.3417 39.7534 59.1836 39.6395 58.9474 39.6395C58.7408 39.6395 58.5553 39.6986 58.3908 39.8167C58.2263 39.9347 58.1062 40.076 58.0281 40.2404C57.9522 40.4049 57.8953 40.6094 57.8616 40.854C57.8278 41.0986 57.811 41.3242 57.811 41.5308V42.9877C57.811 43.6076 58.0408 43.9176 58.5004 43.9176V44.2043H55.0447V43.9176C55.458 43.9176 55.6646 43.6076 55.6646 42.9877V39.823ZM65.0324 41.5329C65.0935 42.0685 65.2622 42.5007 65.5384 42.8296C65.8525 43.2112 66.2658 43.4031 66.7781 43.4031C67.2294 43.4031 67.6342 43.2787 67.9884 43.0299C68.3447 42.7811 68.6104 42.4459 68.7854 42.0263L69.0257 42.1191L68.3131 44.3224C68.2667 44.2907 68.2245 44.2655 68.1866 44.2423C68.1022 44.1959 68.0221 44.1727 67.9462 44.1727L67.6932 44.2064C67.455 44.2444 67.2104 44.2781 66.9595 44.3097C66.7065 44.3414 66.4661 44.3561 66.2363 44.3561C65.7914 44.3561 65.3634 44.3034 64.9501 44.1959C64.5369 44.0883 64.17 43.9176 63.8474 43.6793C63.4721 43.4031 63.1812 43.0636 62.9745 42.6567C62.7679 42.2519 62.6646 41.8112 62.6646 41.3368C62.6646 40.4176 63.0125 39.688 63.7083 39.1441C64.3429 38.6465 65.1399 38.3977 66.095 38.3977C66.8899 38.3977 67.5562 38.5811 68.0917 38.948C68.6736 39.3528 69.03 39.9347 69.1586 40.6938L65.0324 41.5329ZM66.8688 40.4534V40.2573C66.8688 39.9895 66.7803 39.7597 66.6053 39.5679C66.4303 39.376 66.211 39.2811 65.9516 39.2811C65.608 39.2811 65.3465 39.4603 65.1715 39.8209C65.0345 40.0971 64.9649 40.4323 64.9649 40.8308L66.8688 40.4534ZM34.1923 39.8293C33.9456 39.492 33.7622 39.1841 33.642 38.9079C33.5239 38.6296 33.4649 38.3471 33.4649 38.0582C33.4649 37.3793 33.661 36.8522 34.0574 36.4832C34.4537 36.1142 34.9977 35.9287 35.6893 35.9287C36.2818 35.9287 36.7667 36.1121 37.1378 36.479C37.5089 36.848 37.6965 37.295 37.6965 37.8157C37.6965 38.2037 37.6164 38.5411 37.4583 38.8236C37.3001 39.1082 37.0661 39.3718 36.754 39.6164L36.1848 40.0191L37.6986 41.7859C37.8336 41.5667 37.9369 41.3242 38.0128 41.0627C38.0866 40.8034 38.1245 40.5251 38.1245 40.2341H39.4318C39.4318 40.7633 39.3643 41.2504 39.2336 41.6911C39.1007 42.1317 38.8941 42.5218 38.6137 42.8612L39.7396 44.1769L39.729 44.2064H37.9137L37.4815 43.7067C37.1631 43.9133 36.8363 44.0673 36.501 44.1706C36.1637 44.2739 35.8031 44.3245 35.4173 44.3266C34.6013 44.3245 33.9562 44.1115 33.4733 43.6835C32.9905 43.2555 32.7501 42.6989 32.7501 42.0115C32.7501 41.5582 32.8682 41.1745 33.1065 40.854C33.3384 40.5335 33.701 40.192 34.1923 39.8293ZM35.4953 43.07C35.6935 43.07 35.8917 43.0447 36.0899 42.9962C36.286 42.9456 36.4778 42.8697 36.6613 42.7685L35.0062 40.8519L34.9555 40.892C34.7363 41.0691 34.5845 41.2462 34.5022 41.4191C34.42 41.592 34.3778 41.7606 34.3778 41.9293C34.3778 42.2603 34.4812 42.5344 34.6857 42.7495C34.8965 42.9624 35.1643 43.07 35.4953 43.07ZM34.9239 38.0414C34.9239 38.1974 34.9619 38.3597 35.0378 38.5242C35.1116 38.6886 35.2275 38.8679 35.3793 39.0618L35.8031 38.7877C36.014 38.6528 36.1531 38.5136 36.2269 38.3724C36.2986 38.2311 36.3366 38.0751 36.3366 37.9064C36.3366 37.7145 36.2733 37.548 36.151 37.4046C36.0287 37.2612 35.858 37.1874 35.6408 37.1874C35.4173 37.1874 35.2402 37.2697 35.1137 37.4341C34.9893 37.6007 34.9239 37.801 34.9239 38.0414Z" fill="#F8B817"/>
</g>
<defs>
<clipPath id="clip0_16_1295">
<rect width="70" height="45" fill="white"/>
</clipPath>
</defs>
</svg>
