<svg width="188" height="79" viewBox="0 0 188 79" fill="none" xmlns="http://www.w3.org/2000/svg">
<path d="M0.0544188 34.9711C0.789945 34.0015 1.30816 32.8982 1.60905 31.6612C1.90995 30.3908 2.0604 28.903 2.0604 27.1979V8.14111C2.0604 6.43603 1.90995 4.96497 1.60905 3.72795C1.30816 2.4575 0.789945 1.33749 0.0544188 0.367935V0.117188H17.6067C21.2175 0.117188 24.2098 0.802564 26.5835 2.17332C28.9573 3.54407 30.1441 5.7005 30.1441 8.6426C30.1441 10.8492 29.3752 12.6378 27.8372 14.0086C26.2993 15.3459 24.4772 16.1483 22.3709 16.4158V16.6665C24.9453 16.934 27.085 17.8534 28.7901 19.4247C30.5286 20.9961 31.3979 23.0857 31.3979 25.6934C31.3979 29.0367 30.0605 31.4606 27.3859 32.9651C24.7447 34.4696 21.485 35.2218 17.6067 35.2218H0.0544188V34.9711ZM14.0963 15.9143C15.9351 15.9143 17.356 15.2623 18.359 13.9585C19.362 12.6211 19.8635 10.8492 19.8635 8.6426C19.8635 6.53632 19.3954 4.81452 18.4593 3.47721C17.5232 2.13988 16.2861 1.47122 14.7482 1.47122C13.7452 1.47122 12.8593 1.70526 12.0903 2.17332V15.9143H14.0963ZM15.1494 33.8678C16.9548 33.8678 18.3924 33.1657 19.4623 31.7615C20.5656 30.3573 21.1172 28.3346 21.1172 25.6934C21.1172 22.9854 20.5321 20.9292 19.362 19.525C18.1918 18.1209 16.5202 17.4188 14.347 17.4188H12.0903V33.0153C12.4581 33.2827 12.9094 33.5 13.4443 33.6672C14.0127 33.8009 14.5811 33.8678 15.1494 33.8678Z" fill="#111111"/>
<path d="M34.2476 34.9711C34.7491 34.2356 35.1169 33.2827 35.3509 32.1126C35.6184 30.909 35.7521 29.6051 35.7521 28.2009V17.168C35.7521 15.7638 35.6184 14.4767 35.3509 13.3065C35.1169 12.1029 34.7491 11.1334 34.2476 10.3978V10.1471H46.5343V10.3978C46.0328 11.1334 45.6483 12.1029 45.3808 13.3065C45.1468 14.4767 45.0298 15.7638 45.0298 17.168V27.1478L51.3486 15.4128C51.3486 13.808 50.8471 12.1364 49.8441 10.3978V10.1471H62.1308V10.3978C61.6293 11.1334 61.2448 12.1029 60.9773 13.3065C60.7433 14.4767 60.6263 15.7638 60.6263 17.168V28.2009C60.6263 29.6051 60.7433 30.909 60.9773 32.1126C61.2448 33.2827 61.6293 34.2356 62.1308 34.9711V35.2218H49.8441V34.9711C50.3456 34.2356 50.7134 33.2827 50.9474 32.1126C51.2149 30.909 51.3486 29.6051 51.3486 28.2009V18.2212L45.0298 29.9561C45.0298 31.5275 45.5313 33.1991 46.5343 34.9711V35.2218H34.2476V34.9711Z" fill="#111111"/>
<path d="M67.1582 34.9711C67.6597 34.2356 68.0275 33.2827 68.2615 32.1126C68.529 30.909 68.6627 29.6051 68.6627 28.2009V17.168C68.6627 15.7638 68.529 14.4767 68.2615 13.3065C68.0275 12.1029 67.6597 11.1334 67.1582 10.3978V10.1471H79.4449V10.3978C78.9434 11.1334 78.5589 12.1029 78.2914 13.3065C78.0574 14.4767 77.9404 15.7638 77.9404 17.168V21.6815H84.2592V17.168C84.2592 15.7638 84.1255 14.4767 83.858 13.3065C83.624 12.1029 83.2562 11.1334 82.7547 10.3978V10.1471H95.0414V10.3978C94.5399 11.1334 94.1554 12.1029 93.8879 13.3065C93.6539 14.4767 93.5369 15.7638 93.5369 17.168V28.2009C93.5369 29.6051 93.6539 30.909 93.8879 32.1126C94.1554 33.2827 94.5399 34.2356 95.0414 34.9711V35.2218H82.7547V34.9711C83.2562 34.2356 83.624 33.2827 83.858 32.1126C84.1255 30.909 84.2592 29.6051 84.2592 28.2009V22.9352H77.9404V28.2009C77.9404 29.6051 78.0574 30.909 78.2914 32.1126C78.5589 33.2827 78.9434 34.2356 79.4449 34.9711V35.2218H67.1582V34.9711Z" fill="#111111"/>
<path d="M100.069 34.9711C100.57 34.2356 100.938 33.2827 101.172 32.1126C101.44 30.909 101.573 29.6051 101.573 28.2009V17.168C101.573 15.7638 101.44 14.4767 101.172 13.3065C100.938 12.1029 100.57 11.1334 100.069 10.3978V10.1471H112.355V10.3978C111.854 11.1334 111.47 12.1029 111.202 13.3065C110.968 14.4767 110.851 15.7638 110.851 17.168V21.6815H117.17V17.168C117.17 15.7638 117.036 14.4767 116.769 13.3065C116.535 12.1029 116.167 11.1334 115.665 10.3978V10.1471H127.952V10.3978C127.451 11.1334 127.066 12.1029 126.799 13.3065C126.565 14.4767 126.448 15.7638 126.448 17.168V28.2009C126.448 29.6051 126.565 30.909 126.799 32.1126C127.066 33.2827 127.451 34.2356 127.952 34.9711V35.2218H115.665V34.9711C116.167 34.2356 116.535 33.2827 116.769 32.1126C117.036 30.909 117.17 29.6051 117.17 28.2009V22.9352H110.851V28.2009C110.851 29.6051 110.968 30.909 111.202 32.1126C111.47 33.2827 111.854 34.2356 112.355 34.9711V35.2218H100.069V34.9711Z" fill="#111111"/>
<path d="M156.425 32.7144C155.923 33.7174 155.087 34.5197 153.917 35.1215C152.747 35.6899 151.426 35.9741 149.955 35.9741C147.047 35.9741 145.057 34.7371 143.988 32.263H143.737C142.366 34.7371 140.059 35.9741 136.816 35.9741C134.743 35.9741 133.122 35.4893 131.952 34.5197C130.781 33.5502 130.196 32.1627 130.196 30.3573C130.196 28.4851 130.848 26.897 132.152 25.5931C133.456 24.2893 135.145 23.3197 137.217 22.6845C139.324 22.0158 141.547 21.6815 143.887 21.6815V19.6755C143.887 17.7698 143.336 16.2486 142.232 15.1119C141.129 13.9752 139.574 13.4068 137.568 13.4068C136.131 13.4068 134.86 13.7077 133.757 14.3095C132.687 14.9113 131.835 15.7806 131.199 16.9173H130.698C131.3 14.577 132.62 12.7381 134.66 11.4008C136.733 10.0635 139.173 9.39485 141.982 9.39485C145.492 9.39485 148.234 10.3477 150.206 12.2534C152.179 14.1256 153.165 16.5997 153.165 19.6755V30.7084C153.165 32.2129 153.7 32.9651 154.77 32.9651C155.371 32.9651 155.84 32.798 156.174 32.4636L156.425 32.7144ZM141.831 31.7114C142.968 31.7114 143.653 31.1932 143.887 30.1567V22.9352C142.617 23.0689 141.597 23.5872 140.828 24.4898C140.093 25.3925 139.725 26.6296 139.725 28.2009C139.725 30.5412 140.427 31.7114 141.831 31.7114Z" fill="#111111"/>
<path d="M164.469 35.7233C162.864 35.7233 161.494 35.4893 160.357 35.0212C159.254 34.5197 158.451 33.8344 157.95 32.9651L158.451 32.7144C158.785 33.0487 159.203 33.2159 159.705 33.2159C160.273 33.2159 160.741 32.915 161.109 32.3132C161.51 31.7114 161.928 30.7753 162.363 29.5048C162.998 27.5657 163.951 26.0278 165.221 24.891C166.492 23.7543 168.08 23.186 169.986 23.186V22.9352C168.113 22.7681 166.341 22.183 164.67 21.18C163.031 20.177 162.212 18.6725 162.212 16.6665C162.212 14.5602 163.148 12.9555 165.021 11.8522C166.893 10.7155 169.133 10.1471 171.741 10.1471H187.688V10.3978C187.187 11.1334 186.802 12.1029 186.535 13.3065C186.301 14.4767 186.184 15.7638 186.184 17.168V28.2009C186.184 29.6051 186.301 30.909 186.535 32.1126C186.802 33.2827 187.187 34.2356 187.688 34.9711V35.2218H175.402V34.9711C175.903 34.2356 176.271 33.2827 176.505 32.1126C176.772 30.909 176.906 29.6051 176.906 28.2009V23.6875H176.505C175.803 23.6875 175.151 24.0887 174.549 24.891C173.947 25.66 173.329 27.0642 172.694 29.1036C171.992 31.3436 170.989 33.0153 169.685 34.1186C168.381 35.1884 166.642 35.7233 164.469 35.7233ZM176.906 22.4337V11.6516C176.572 11.4844 176.137 11.4008 175.602 11.4008C174.499 11.4008 173.613 11.8856 172.944 12.8552C172.309 13.7913 171.992 15.1453 171.992 16.9173C171.992 18.7227 172.292 20.0934 172.894 21.0295C173.496 21.9657 174.365 22.4337 175.502 22.4337H176.906Z" fill="#111111"/>
<path d="M23.2676 68.7434C21.1947 68.7434 19.5231 68.3088 18.2526 67.4395C16.9822 66.5703 16.0293 65.5171 15.3941 64.2801C14.7923 63.0431 14.2574 61.5553 13.7893 59.8168C13.3547 58.3123 12.9535 57.209 12.5857 56.5069C12.218 55.8048 11.7165 55.4538 11.0812 55.4538H10.8305V61.221C10.8305 62.6252 10.9475 63.929 11.1815 65.1326C11.449 66.3028 11.8335 67.2556 12.335 67.9911V68.2419H0.0483398V67.9911C0.549835 67.2556 0.917598 66.3028 1.15163 65.1326C1.41909 63.929 1.55283 62.6252 1.55283 61.221V50.1881C1.55283 48.7839 1.41909 47.4967 1.15163 46.3266C0.917598 45.123 0.549835 44.1534 0.0483398 43.4179V43.1671H12.335V43.4179C11.8335 44.1534 11.449 45.123 11.1815 46.3266C10.9475 47.4967 10.8305 48.7839 10.8305 50.1881V54.4508H11.2317C11.9003 54.4508 12.4854 54.2 12.9869 53.6985L16.3469 50.0376C17.818 48.4328 18.5535 46.9284 18.5535 45.5242C18.5535 44.8555 18.3696 44.1534 18.0019 43.4179V43.1671H26.778V43.4179C24.2037 44.4878 21.4789 46.5439 18.6037 49.5863L13.9899 54.4508C16.4305 54.4508 18.3863 54.9021 19.8574 55.8048C21.3619 56.6741 22.4652 57.6938 23.1673 58.8639C23.8694 60.0007 24.5213 61.3881 25.1231 63.0264C25.5243 64.1296 25.8921 64.9487 26.2264 65.4837C26.5607 65.9852 26.9953 66.2359 27.5303 66.2359C28.0318 66.2359 28.5333 65.9852 29.0348 65.4837L29.5363 65.7344C29.0348 66.7374 28.2491 67.4897 27.1792 67.9911C26.1094 68.4926 24.8055 68.7434 23.2676 68.7434Z" fill="#111111"/>
<path d="M57.6852 65.7344C57.1837 66.7374 56.3478 67.5398 55.1777 68.1416C54.0075 68.71 52.6869 68.9941 51.2159 68.9941C48.3072 68.9941 46.3179 67.7571 45.2481 65.2831H44.9973C43.6266 67.7571 41.3197 68.9941 38.0767 68.9941C36.0038 68.9941 34.3823 68.5094 33.2122 67.5398C32.042 66.5703 31.457 65.1828 31.457 63.3774C31.457 61.5052 32.1089 59.9171 33.4128 58.6132C34.7167 57.3093 36.405 56.3398 38.4779 55.7045C40.5842 55.0359 42.8075 54.7015 45.1478 54.7015V52.6956C45.1478 50.7899 44.5961 49.2687 43.4928 48.132C42.3896 46.9952 40.8349 46.4269 38.8289 46.4269C37.3913 46.4269 36.1209 46.7278 35.0176 47.3296C33.9477 47.9313 33.0952 48.8006 32.4599 49.9373H31.9585C32.5602 47.597 33.8809 45.7582 35.9203 44.4209C37.9931 43.0836 40.4337 42.4149 43.2421 42.4149C46.7526 42.4149 49.4941 43.3677 51.4666 45.2734C53.4392 47.1457 54.4254 49.6197 54.4254 52.6956V63.7284C54.4254 65.2329 54.9604 65.9852 56.0302 65.9852C56.632 65.9852 57.1001 65.818 57.4344 65.4837L57.6852 65.7344ZM43.0916 64.7314C44.2284 64.7314 44.9137 64.2132 45.1478 63.1768V55.9553C43.8773 56.089 42.8576 56.6072 42.0887 57.5099C41.3531 58.4126 40.9854 59.6496 40.9854 61.221C40.9854 63.5613 41.6875 64.7314 43.0916 64.7314Z" fill="#111111"/>
<path d="M58.5176 78.0211C59.0191 77.2855 59.3868 76.316 59.6209 75.1124C59.8883 73.9422 60.0221 72.6551 60.0221 71.2509V52.5953C60.0221 50.9236 59.8549 49.5863 59.5206 48.5833C59.1862 47.5803 58.6847 46.7445 58.0161 46.0758V45.8251L69.049 42.4149H69.2997V46.4269H69.5505C71.289 43.7522 73.7296 42.4149 76.8723 42.4149C78.778 42.4149 80.4663 42.883 81.9374 43.8191C83.4419 44.7552 84.612 46.1427 85.4479 47.9815C86.3171 49.8203 86.7518 52.0269 86.7518 54.6012C86.7518 57.4765 86.2168 60.0007 85.147 62.1738C84.0771 64.347 82.6228 66.0353 80.784 67.2389C78.9786 68.4091 77.006 68.9941 74.8663 68.9941C73.6627 68.9941 72.5762 68.8437 71.6066 68.5428C70.637 68.2753 69.8681 67.9243 69.2997 67.4897V71.2509C69.2997 72.6551 69.4167 73.9422 69.6508 75.1124C69.9182 76.316 70.3027 77.2855 70.8042 78.0211V78.2718H58.5176V78.0211ZM72.6597 67.2389C73.9636 67.2389 74.9666 66.3028 75.6687 64.4305C76.3708 62.5583 76.7219 59.8168 76.7219 56.206C76.7219 53.1636 76.3541 50.8233 75.6186 49.1851C74.883 47.5134 73.8299 46.6776 72.4591 46.6776C70.9212 46.6776 69.8681 47.4299 69.2997 48.9343V63.9792C69.5672 64.9822 69.9851 65.7846 70.5535 66.3864C71.1553 66.9547 71.8573 67.2389 72.6597 67.2389Z" fill="#111111"/>
<path d="M96.0141 67.9911C96.5156 67.2556 96.8834 66.3028 97.1174 65.1326C97.3849 63.929 97.5186 62.6252 97.5186 61.221V44.4209H97.2679C95.2284 44.7886 93.5568 45.591 92.2529 46.8281C90.949 48.0317 89.8624 49.8203 88.9932 52.1941H88.4917L89.4947 43.1671H114.82L115.823 52.1941H115.322C114.452 49.8203 113.366 48.0317 112.062 46.8281C110.758 45.591 109.086 44.7886 107.047 44.4209H106.796V61.221C106.796 62.6252 106.913 63.929 107.147 65.1326C107.415 66.3028 107.799 67.2556 108.301 67.9911V68.2419H96.0141V67.9911Z" fill="#111111"/>
<path d="M143.552 65.7344C143.05 66.7374 142.215 67.5398 141.044 68.1416C139.874 68.71 138.554 68.9941 137.083 68.9941C134.174 68.9941 132.185 67.7571 131.115 65.2831H130.864C129.493 67.7571 127.187 68.9941 123.944 68.9941C121.871 68.9941 120.249 68.5094 119.079 67.5398C117.909 66.5703 117.324 65.1828 117.324 63.3774C117.324 61.5052 117.976 59.9171 119.28 58.6132C120.583 57.3093 122.272 56.3398 124.345 55.7045C126.451 55.0359 128.674 54.7015 131.015 54.7015V52.6956C131.015 50.7899 130.463 49.2687 129.36 48.132C128.256 46.9952 126.702 46.4269 124.696 46.4269C123.258 46.4269 121.988 46.7278 120.884 47.3296C119.815 47.9313 118.962 48.8006 118.327 49.9373H117.825C118.427 47.597 119.748 45.7582 121.787 44.4209C123.86 43.0836 126.301 42.4149 129.109 42.4149C132.619 42.4149 135.361 43.3677 137.333 45.2734C139.306 47.1457 140.292 49.6197 140.292 52.6956V63.7284C140.292 65.2329 140.827 65.9852 141.897 65.9852C142.499 65.9852 142.967 65.818 143.301 65.4837L143.552 65.7344ZM128.958 64.7314C130.095 64.7314 130.781 64.2132 131.015 63.1768V55.9553C129.744 56.089 128.724 56.6072 127.955 57.5099C127.22 58.4126 126.852 59.6496 126.852 61.221C126.852 63.5613 127.554 64.7314 128.958 64.7314Z" fill="#111111"/>
</svg>
