<svg width="59" height="165" viewBox="0 0 59 165" fill="none" xmlns="http://www.w3.org/2000/svg">
<path d="M56.2642 103.146L56.8849 97.239L57.178 92.7145L57.2432 87.5568L56.3702 76.2165L52.2041 51.4106L52.4177 40.3897L56.5453 12.3905L57.4878 11.7314L58.3927 6.61643L57.5309 6.46395L57.9561 4.06029L55.1083 1.8405L50.9235 1.10016L46.7388 0.359821L43.3034 1.46802L42.8782 3.87168L42.0163 3.71921L41.1114 8.83416L41.7706 9.77665L36.0414 37.4925L32.4609 47.9178L20.037 69.7886L15.3262 80.1411L13.6179 85.0081L12.3397 89.3583L10.8974 95.1197L0.329471 151.979L0.502812 153.874L3.06158 157.123L5.57346 158.246L11.1335 159.61L22.5243 161.625L33.9151 163.641L39.6068 164.267L42.3515 164.074L45.8696 161.901L46.6814 160.18L56.2642 103.146Z" fill="#CA2124"/>
</svg>
