<svg width="136" height="136" viewBox="0 0 136 136" fill="none" xmlns="http://www.w3.org/2000/svg">
<path d="M0 0H4.68966V4.68966H0V0ZM4.68966 0H9.37931V4.68966H4.68966V0ZM9.37931 0H14.069V4.68966H9.37931V0ZM14.069 0H18.7586V4.68966H14.069V0ZM18.7586 0H23.4483V4.68966H18.7586V0ZM23.4483 0H28.1379V4.68966H23.4483V0ZM28.1379 0H32.8276V4.68966H28.1379V0ZM51.5862 0H56.2759V4.68966H51.5862V0ZM60.9655 0H65.6552V4.68966H60.9655V0ZM65.6552 0H70.3448V4.68966H65.6552V0ZM79.7241 0H84.4138V4.68966H79.7241V0ZM89.1035 0H93.7931V4.68966H89.1035V0ZM93.7931 0H98.4828V4.68966H93.7931V0ZM103.172 0H107.862V4.68966H103.172V0ZM107.862 0H112.552V4.68966H107.862V0ZM112.552 0H117.241V4.68966H112.552V0ZM117.241 0H121.931V4.68966H117.241V0ZM121.931 0H126.621V4.68966H121.931V0ZM126.621 0H131.31V4.68966H126.621V0ZM131.31 0H136V4.68966H131.31V0ZM0 4.68966H4.68966V9.37931H0V4.68966ZM28.1379 4.68966H32.8276V9.37931H28.1379V4.68966ZM37.5172 4.68966H42.2069V9.37931H37.5172V4.68966ZM42.2069 4.68966H46.8966V9.37931H42.2069V4.68966ZM51.5862 4.68966H56.2759V9.37931H51.5862V4.68966ZM56.2759 4.68966H60.9655V9.37931H56.2759V4.68966ZM60.9655 4.68966H65.6552V9.37931H60.9655V4.68966ZM79.7241 4.68966H84.4138V9.37931H79.7241V4.68966ZM84.4138 4.68966H89.1035V9.37931H84.4138V4.68966ZM103.172 4.68966H107.862V9.37931H103.172V4.68966ZM131.31 4.68966H136V9.37931H131.31V4.68966ZM0 9.37931H4.68966V14.069H0V9.37931ZM9.37931 9.37931H14.069V14.069H9.37931V9.37931ZM14.069 9.37931H18.7586V14.069H14.069V9.37931ZM18.7586 9.37931H23.4483V14.069H18.7586V9.37931ZM28.1379 9.37931H32.8276V14.069H28.1379V9.37931ZM37.5172 9.37931H42.2069V14.069H37.5172V9.37931ZM46.8966 9.37931H51.5862V14.069H46.8966V9.37931ZM56.2759 9.37931H60.9655V14.069H56.2759V9.37931ZM84.4138 9.37931H89.1035V14.069H84.4138V9.37931ZM103.172 9.37931H107.862V14.069H103.172V9.37931ZM112.552 9.37931H117.241V14.069H112.552V9.37931ZM117.241 9.37931H121.931V14.069H117.241V9.37931ZM121.931 9.37931H126.621V14.069H121.931V9.37931ZM131.31 9.37931H136V14.069H131.31V9.37931ZM0 14.069H4.68966V18.7586H0V14.069ZM9.37931 14.069H14.069V18.7586H9.37931V14.069ZM14.069 14.069H18.7586V18.7586H14.069V14.069ZM18.7586 14.069H23.4483V18.7586H18.7586V14.069ZM28.1379 14.069H32.8276V18.7586H28.1379V14.069ZM42.2069 14.069H46.8966V18.7586H42.2069V14.069ZM51.5862 14.069H56.2759V18.7586H51.5862V14.069ZM56.2759 14.069H60.9655V18.7586H56.2759V14.069ZM65.6552 14.069H70.3448V18.7586H65.6552V14.069ZM70.3448 14.069H75.0345V18.7586H70.3448V14.069ZM75.0345 14.069H79.7241V18.7586H75.0345V14.069ZM79.7241 14.069H84.4138V18.7586H79.7241V14.069ZM103.172 14.069H107.862V18.7586H103.172V14.069ZM112.552 14.069H117.241V18.7586H112.552V14.069ZM117.241 14.069H121.931V18.7586H117.241V14.069ZM121.931 14.069H126.621V18.7586H121.931V14.069ZM131.31 14.069H136V18.7586H131.31V14.069ZM0 18.7586H4.68966V23.4483H0V18.7586ZM9.37931 18.7586H14.069V23.4483H9.37931V18.7586ZM14.069 18.7586H18.7586V23.4483H14.069V18.7586ZM18.7586 18.7586H23.4483V23.4483H18.7586V18.7586ZM28.1379 18.7586H32.8276V23.4483H28.1379V18.7586ZM42.2069 18.7586H46.8966V23.4483H42.2069V18.7586ZM46.8966 18.7586H51.5862V23.4483H46.8966V18.7586ZM65.6552 18.7586H70.3448V23.4483H65.6552V18.7586ZM70.3448 18.7586H75.0345V23.4483H70.3448V18.7586ZM79.7241 18.7586H84.4138V23.4483H79.7241V18.7586ZM89.1035 18.7586H93.7931V23.4483H89.1035V18.7586ZM103.172 18.7586H107.862V23.4483H103.172V18.7586ZM112.552 18.7586H117.241V23.4483H112.552V18.7586ZM117.241 18.7586H121.931V23.4483H117.241V18.7586ZM121.931 18.7586H126.621V23.4483H121.931V18.7586ZM131.31 18.7586H136V23.4483H131.31V18.7586ZM0 23.4483H4.68966V28.1379H0V23.4483ZM28.1379 23.4483H32.8276V28.1379H28.1379V23.4483ZM46.8966 23.4483H51.5862V28.1379H46.8966V23.4483ZM51.5862 23.4483H56.2759V28.1379H51.5862V23.4483ZM84.4138 23.4483H89.1035V28.1379H84.4138V23.4483ZM89.1035 23.4483H93.7931V28.1379H89.1035V23.4483ZM93.7931 23.4483H98.4828V28.1379H93.7931V23.4483ZM103.172 23.4483H107.862V28.1379H103.172V23.4483ZM131.31 23.4483H136V28.1379H131.31V23.4483ZM0 28.1379H4.68966V32.8276H0V28.1379ZM4.68966 28.1379H9.37931V32.8276H4.68966V28.1379ZM9.37931 28.1379H14.069V32.8276H9.37931V28.1379ZM14.069 28.1379H18.7586V32.8276H14.069V28.1379ZM18.7586 28.1379H23.4483V32.8276H18.7586V28.1379ZM23.4483 28.1379H28.1379V32.8276H23.4483V28.1379ZM28.1379 28.1379H32.8276V32.8276H28.1379V28.1379ZM37.5172 28.1379H42.2069V32.8276H37.5172V28.1379ZM46.8966 28.1379H51.5862V32.8276H46.8966V28.1379ZM56.2759 28.1379H60.9655V32.8276H56.2759V28.1379ZM65.6552 28.1379H70.3448V32.8276H65.6552V28.1379ZM75.0345 28.1379H79.7241V32.8276H75.0345V28.1379ZM84.4138 28.1379H89.1035V32.8276H84.4138V28.1379ZM93.7931 28.1379H98.4828V32.8276H93.7931V28.1379ZM103.172 28.1379H107.862V32.8276H103.172V28.1379ZM107.862 28.1379H112.552V32.8276H107.862V28.1379ZM112.552 28.1379H117.241V32.8276H112.552V28.1379ZM117.241 28.1379H121.931V32.8276H117.241V28.1379ZM121.931 28.1379H126.621V32.8276H121.931V28.1379ZM126.621 28.1379H131.31V32.8276H126.621V28.1379ZM131.31 28.1379H136V32.8276H131.31V28.1379ZM60.9655 32.8276H65.6552V37.5172H60.9655V32.8276ZM70.3448 32.8276H75.0345V37.5172H70.3448V32.8276ZM75.0345 32.8276H79.7241V37.5172H75.0345V32.8276ZM79.7241 32.8276H84.4138V37.5172H79.7241V32.8276ZM4.68966 37.5172H9.37931V42.2069H4.68966V37.5172ZM9.37931 37.5172H14.069V42.2069H9.37931V37.5172ZM14.069 37.5172H18.7586V42.2069H14.069V37.5172ZM23.4483 37.5172H28.1379V42.2069H23.4483V37.5172ZM28.1379 37.5172H32.8276V42.2069H28.1379V37.5172ZM42.2069 37.5172H46.8966V42.2069H42.2069V37.5172ZM46.8966 37.5172H51.5862V42.2069H46.8966V37.5172ZM65.6552 37.5172H70.3448V42.2069H65.6552V37.5172ZM79.7241 37.5172H84.4138V42.2069H79.7241V37.5172ZM93.7931 37.5172H98.4828V42.2069H93.7931V37.5172ZM121.931 37.5172H126.621V42.2069H121.931V37.5172ZM126.621 37.5172H131.31V42.2069H126.621V37.5172ZM4.68966 42.2069H9.37931V46.8966H4.68966V42.2069ZM23.4483 42.2069H28.1379V46.8966H23.4483V42.2069ZM32.8276 42.2069H37.5172V46.8966H32.8276V42.2069ZM37.5172 42.2069H42.2069V46.8966H37.5172V42.2069ZM42.2069 42.2069H46.8966V46.8966H42.2069V42.2069ZM51.5862 42.2069H56.2759V46.8966H51.5862V42.2069ZM60.9655 42.2069H65.6552V46.8966H60.9655V42.2069ZM65.6552 42.2069H70.3448V46.8966H65.6552V42.2069ZM70.3448 42.2069H75.0345V46.8966H70.3448V42.2069ZM75.0345 42.2069H79.7241V46.8966H75.0345V42.2069ZM79.7241 42.2069H84.4138V46.8966H79.7241V42.2069ZM89.1035 42.2069H93.7931V46.8966H89.1035V42.2069ZM93.7931 42.2069H98.4828V46.8966H93.7931V42.2069ZM98.4828 42.2069H103.172V46.8966H98.4828V42.2069ZM103.172 42.2069H107.862V46.8966H103.172V42.2069ZM107.862 42.2069H112.552V46.8966H107.862V42.2069ZM112.552 42.2069H117.241V46.8966H112.552V42.2069ZM117.241 42.2069H121.931V46.8966H117.241V42.2069ZM131.31 42.2069H136V46.8966H131.31V42.2069ZM9.37931 46.8966H14.069V51.5862H9.37931V46.8966ZM14.069 46.8966H18.7586V51.5862H14.069V46.8966ZM28.1379 46.8966H32.8276V51.5862H28.1379V46.8966ZM32.8276 46.8966H37.5172V51.5862H32.8276V46.8966ZM46.8966 46.8966H51.5862V51.5862H46.8966V46.8966ZM56.2759 46.8966H60.9655V51.5862H56.2759V46.8966ZM70.3448 46.8966H75.0345V51.5862H70.3448V46.8966ZM79.7241 46.8966H84.4138V51.5862H79.7241V46.8966ZM103.172 46.8966H107.862V51.5862H103.172V46.8966ZM107.862 46.8966H112.552V51.5862H107.862V46.8966ZM112.552 46.8966H117.241V51.5862H112.552V46.8966ZM117.241 46.8966H121.931V51.5862H117.241V46.8966ZM121.931 46.8966H126.621V51.5862H121.931V46.8966ZM126.621 46.8966H131.31V51.5862H126.621V46.8966ZM4.68966 51.5862H9.37931V56.2759H4.68966V51.5862ZM23.4483 51.5862H28.1379V56.2759H23.4483V51.5862ZM37.5172 51.5862H42.2069V56.2759H37.5172V51.5862ZM42.2069 51.5862H46.8966V56.2759H42.2069V51.5862ZM46.8966 51.5862H51.5862V56.2759H46.8966V51.5862ZM56.2759 51.5862H60.9655V56.2759H56.2759V51.5862ZM65.6552 51.5862H70.3448V56.2759H65.6552V51.5862ZM70.3448 51.5862H75.0345V56.2759H70.3448V51.5862ZM75.0345 51.5862H79.7241V56.2759H75.0345V51.5862ZM84.4138 51.5862H89.1035V56.2759H84.4138V51.5862ZM89.1035 51.5862H93.7931V56.2759H89.1035V51.5862ZM93.7931 51.5862H98.4828V56.2759H93.7931V51.5862ZM107.862 51.5862H112.552V56.2759H107.862V51.5862ZM112.552 51.5862H117.241V56.2759H112.552V51.5862ZM117.241 51.5862H121.931V56.2759H117.241V51.5862ZM131.31 51.5862H136V56.2759H131.31V51.5862ZM4.68966 56.2759H9.37931V60.9655H4.68966V56.2759ZM14.069 56.2759H18.7586V60.9655H14.069V56.2759ZM18.7586 56.2759H23.4483V60.9655H18.7586V56.2759ZM28.1379 56.2759H32.8276V60.9655H28.1379V56.2759ZM37.5172 56.2759H42.2069V60.9655H37.5172V56.2759ZM42.2069 56.2759H46.8966V60.9655H42.2069V56.2759ZM56.2759 56.2759H60.9655V60.9655H56.2759V56.2759ZM60.9655 56.2759H65.6552V60.9655H60.9655V56.2759ZM65.6552 56.2759H70.3448V60.9655H65.6552V56.2759ZM70.3448 56.2759H75.0345V60.9655H70.3448V56.2759ZM75.0345 56.2759H79.7241V60.9655H75.0345V56.2759ZM79.7241 56.2759H84.4138V60.9655H79.7241V56.2759ZM98.4828 56.2759H103.172V60.9655H98.4828V56.2759ZM107.862 56.2759H112.552V60.9655H107.862V56.2759ZM121.931 56.2759H126.621V60.9655H121.931V56.2759ZM126.621 56.2759H131.31V60.9655H126.621V56.2759ZM131.31 56.2759H136V60.9655H131.31V56.2759ZM0 60.9655H4.68966V65.6552H0V60.9655ZM4.68966 60.9655H9.37931V65.6552H4.68966V60.9655ZM14.069 60.9655H18.7586V65.6552H14.069V60.9655ZM23.4483 60.9655H28.1379V65.6552H23.4483V60.9655ZM32.8276 60.9655H37.5172V65.6552H32.8276V60.9655ZM42.2069 60.9655H46.8966V65.6552H42.2069V60.9655ZM56.2759 60.9655H60.9655V65.6552H56.2759V60.9655ZM60.9655 60.9655H65.6552V65.6552H60.9655V60.9655ZM70.3448 60.9655H75.0345V65.6552H70.3448V60.9655ZM79.7241 60.9655H84.4138V65.6552H79.7241V60.9655ZM84.4138 60.9655H89.1035V65.6552H84.4138V60.9655ZM89.1035 60.9655H93.7931V65.6552H89.1035V60.9655ZM103.172 60.9655H107.862V65.6552H103.172V60.9655ZM107.862 60.9655H112.552V65.6552H107.862V60.9655ZM117.241 60.9655H121.931V65.6552H117.241V60.9655ZM121.931 60.9655H126.621V65.6552H121.931V60.9655ZM131.31 60.9655H136V65.6552H131.31V60.9655ZM14.069 65.6552H18.7586V70.3448H14.069V65.6552ZM28.1379 65.6552H32.8276V70.3448H28.1379V65.6552ZM37.5172 65.6552H42.2069V70.3448H37.5172V65.6552ZM42.2069 65.6552H46.8966V70.3448H42.2069V65.6552ZM46.8966 65.6552H51.5862V70.3448H46.8966V65.6552ZM51.5862 65.6552H56.2759V70.3448H51.5862V65.6552ZM56.2759 65.6552H60.9655V70.3448H56.2759V65.6552ZM65.6552 65.6552H70.3448V70.3448H65.6552V65.6552ZM70.3448 65.6552H75.0345V70.3448H70.3448V65.6552ZM79.7241 65.6552H84.4138V70.3448H79.7241V65.6552ZM89.1035 65.6552H93.7931V70.3448H89.1035V65.6552ZM93.7931 65.6552H98.4828V70.3448H93.7931V65.6552ZM107.862 65.6552H112.552V70.3448H107.862V65.6552ZM112.552 65.6552H117.241V70.3448H112.552V65.6552ZM117.241 65.6552H121.931V70.3448H117.241V65.6552ZM126.621 65.6552H131.31V70.3448H126.621V65.6552ZM131.31 65.6552H136V70.3448H131.31V65.6552ZM32.8276 70.3448H37.5172V75.0345H32.8276V70.3448ZM37.5172 70.3448H42.2069V75.0345H37.5172V70.3448ZM51.5862 70.3448H56.2759V75.0345H51.5862V70.3448ZM70.3448 70.3448H75.0345V75.0345H70.3448V70.3448ZM75.0345 70.3448H79.7241V75.0345H75.0345V70.3448ZM84.4138 70.3448H89.1035V75.0345H84.4138V70.3448ZM103.172 70.3448H107.862V75.0345H103.172V70.3448ZM112.552 70.3448H117.241V75.0345H112.552V70.3448ZM117.241 70.3448H121.931V75.0345H117.241V70.3448ZM131.31 70.3448H136V75.0345H131.31V70.3448ZM23.4483 75.0345H28.1379V79.7241H23.4483V75.0345ZM28.1379 75.0345H32.8276V79.7241H28.1379V75.0345ZM32.8276 75.0345H37.5172V79.7241H32.8276V75.0345ZM56.2759 75.0345H60.9655V79.7241H56.2759V75.0345ZM65.6552 75.0345H70.3448V79.7241H65.6552V75.0345ZM70.3448 75.0345H75.0345V79.7241H70.3448V75.0345ZM79.7241 75.0345H84.4138V79.7241H79.7241V75.0345ZM93.7931 75.0345H98.4828V79.7241H93.7931V75.0345ZM107.862 75.0345H112.552V79.7241H107.862V75.0345ZM112.552 75.0345H117.241V79.7241H112.552V75.0345ZM117.241 75.0345H121.931V79.7241H117.241V75.0345ZM126.621 75.0345H131.31V79.7241H126.621V75.0345ZM14.069 79.7241H18.7586V84.4138H14.069V79.7241ZM18.7586 79.7241H23.4483V84.4138H18.7586V79.7241ZM32.8276 79.7241H37.5172V84.4138H32.8276V79.7241ZM42.2069 79.7241H46.8966V84.4138H42.2069V79.7241ZM46.8966 79.7241H51.5862V84.4138H46.8966V79.7241ZM51.5862 79.7241H56.2759V84.4138H51.5862V79.7241ZM93.7931 79.7241H98.4828V84.4138H93.7931V79.7241ZM107.862 79.7241H112.552V84.4138H107.862V79.7241ZM121.931 79.7241H126.621V84.4138H121.931V79.7241ZM0 84.4138H4.68966V89.1035H0V84.4138ZM14.069 84.4138H18.7586V89.1035H14.069V84.4138ZM18.7586 84.4138H23.4483V89.1035H18.7586V84.4138ZM28.1379 84.4138H32.8276V89.1035H28.1379V84.4138ZM32.8276 84.4138H37.5172V89.1035H32.8276V84.4138ZM46.8966 84.4138H51.5862V89.1035H46.8966V84.4138ZM65.6552 84.4138H70.3448V89.1035H65.6552V84.4138ZM79.7241 84.4138H84.4138V89.1035H79.7241V84.4138ZM84.4138 84.4138H89.1035V89.1035H84.4138V84.4138ZM103.172 84.4138H107.862V89.1035H103.172V84.4138ZM107.862 84.4138H112.552V89.1035H107.862V84.4138ZM112.552 84.4138H117.241V89.1035H112.552V84.4138ZM121.931 84.4138H126.621V89.1035H121.931V84.4138ZM9.37931 89.1035H14.069V93.7931H9.37931V89.1035ZM14.069 89.1035H18.7586V93.7931H14.069V89.1035ZM18.7586 89.1035H23.4483V93.7931H18.7586V89.1035ZM23.4483 89.1035H28.1379V93.7931H23.4483V89.1035ZM42.2069 89.1035H46.8966V93.7931H42.2069V89.1035ZM51.5862 89.1035H56.2759V93.7931H51.5862V89.1035ZM56.2759 89.1035H60.9655V93.7931H56.2759V89.1035ZM60.9655 89.1035H65.6552V93.7931H60.9655V89.1035ZM65.6552 89.1035H70.3448V93.7931H65.6552V89.1035ZM70.3448 89.1035H75.0345V93.7931H70.3448V89.1035ZM75.0345 89.1035H79.7241V93.7931H75.0345V89.1035ZM79.7241 89.1035H84.4138V93.7931H79.7241V89.1035ZM98.4828 89.1035H103.172V93.7931H98.4828V89.1035ZM103.172 89.1035H107.862V93.7931H103.172V89.1035ZM107.862 89.1035H112.552V93.7931H107.862V89.1035ZM112.552 89.1035H117.241V93.7931H112.552V89.1035ZM117.241 89.1035H121.931V93.7931H117.241V89.1035ZM121.931 89.1035H126.621V93.7931H121.931V89.1035ZM126.621 89.1035H131.31V93.7931H126.621V89.1035ZM4.68966 93.7931H9.37931V98.4828H4.68966V93.7931ZM9.37931 93.7931H14.069V98.4828H9.37931V93.7931ZM14.069 93.7931H18.7586V98.4828H14.069V93.7931ZM28.1379 93.7931H32.8276V98.4828H28.1379V93.7931ZM42.2069 93.7931H46.8966V98.4828H42.2069V93.7931ZM51.5862 93.7931H56.2759V98.4828H51.5862V93.7931ZM56.2759 93.7931H60.9655V98.4828H56.2759V93.7931ZM60.9655 93.7931H65.6552V98.4828H60.9655V93.7931ZM65.6552 93.7931H70.3448V98.4828H65.6552V93.7931ZM70.3448 93.7931H75.0345V98.4828H70.3448V93.7931ZM75.0345 93.7931H79.7241V98.4828H75.0345V93.7931ZM79.7241 93.7931H84.4138V98.4828H79.7241V93.7931ZM89.1035 93.7931H93.7931V98.4828H89.1035V93.7931ZM93.7931 93.7931H98.4828V98.4828H93.7931V93.7931ZM98.4828 93.7931H103.172V98.4828H98.4828V93.7931ZM103.172 93.7931H107.862V98.4828H103.172V93.7931ZM107.862 93.7931H112.552V98.4828H107.862V93.7931ZM112.552 93.7931H117.241V98.4828H112.552V93.7931ZM117.241 93.7931H121.931V98.4828H117.241V93.7931ZM121.931 93.7931H126.621V98.4828H121.931V93.7931ZM126.621 93.7931H131.31V98.4828H126.621V93.7931ZM37.5172 98.4828H42.2069V103.172H37.5172V98.4828ZM46.8966 98.4828H51.5862V103.172H46.8966V98.4828ZM56.2759 98.4828H60.9655V103.172H56.2759V98.4828ZM60.9655 98.4828H65.6552V103.172H60.9655V98.4828ZM75.0345 98.4828H79.7241V103.172H75.0345V98.4828ZM79.7241 98.4828H84.4138V103.172H79.7241V98.4828ZM84.4138 98.4828H89.1035V103.172H84.4138V98.4828ZM93.7931 98.4828H98.4828V103.172H93.7931V98.4828ZM112.552 98.4828H117.241V103.172H112.552V98.4828ZM117.241 98.4828H121.931V103.172H117.241V98.4828ZM126.621 98.4828H131.31V103.172H126.621V98.4828ZM131.31 98.4828H136V103.172H131.31V98.4828ZM0 103.172H4.68966V107.862H0V103.172ZM4.68966 103.172H9.37931V107.862H4.68966V103.172ZM9.37931 103.172H14.069V107.862H9.37931V103.172ZM14.069 103.172H18.7586V107.862H14.069V103.172ZM18.7586 103.172H23.4483V107.862H18.7586V103.172ZM23.4483 103.172H28.1379V107.862H23.4483V103.172ZM28.1379 103.172H32.8276V107.862H28.1379V103.172ZM60.9655 103.172H65.6552V107.862H60.9655V103.172ZM65.6552 103.172H70.3448V107.862H65.6552V103.172ZM84.4138 103.172H89.1035V107.862H84.4138V103.172ZM89.1035 103.172H93.7931V107.862H89.1035V103.172ZM93.7931 103.172H98.4828V107.862H93.7931V103.172ZM103.172 103.172H107.862V107.862H103.172V103.172ZM112.552 103.172H117.241V107.862H112.552V103.172ZM121.931 103.172H126.621V107.862H121.931V103.172ZM126.621 103.172H131.31V107.862H126.621V103.172ZM0 107.862H4.68966V112.552H0V107.862ZM28.1379 107.862H32.8276V112.552H28.1379V107.862ZM37.5172 107.862H42.2069V112.552H37.5172V107.862ZM46.8966 107.862H51.5862V112.552H46.8966V107.862ZM56.2759 107.862H60.9655V112.552H56.2759V107.862ZM60.9655 107.862H65.6552V112.552H60.9655V107.862ZM75.0345 107.862H79.7241V112.552H75.0345V107.862ZM79.7241 107.862H84.4138V112.552H79.7241V107.862ZM93.7931 107.862H98.4828V112.552H93.7931V107.862ZM112.552 107.862H117.241V112.552H112.552V107.862ZM126.621 107.862H131.31V112.552H126.621V107.862ZM131.31 107.862H136V112.552H131.31V107.862ZM0 112.552H4.68966V117.241H0V112.552ZM9.37931 112.552H14.069V117.241H9.37931V112.552ZM14.069 112.552H18.7586V117.241H14.069V112.552ZM18.7586 112.552H23.4483V117.241H18.7586V112.552ZM28.1379 112.552H32.8276V117.241H28.1379V112.552ZM70.3448 112.552H75.0345V117.241H70.3448V112.552ZM75.0345 112.552H79.7241V117.241H75.0345V112.552ZM93.7931 112.552H98.4828V117.241H93.7931V112.552ZM98.4828 112.552H103.172V117.241H98.4828V112.552ZM103.172 112.552H107.862V117.241H103.172V112.552ZM107.862 112.552H112.552V117.241H107.862V112.552ZM112.552 112.552H117.241V117.241H112.552V112.552ZM117.241 112.552H121.931V117.241H117.241V112.552ZM121.931 112.552H126.621V117.241H121.931V112.552ZM126.621 112.552H131.31V117.241H126.621V112.552ZM0 117.241H4.68966V121.931H0V117.241ZM9.37931 117.241H14.069V121.931H9.37931V117.241ZM14.069 117.241H18.7586V121.931H14.069V117.241ZM18.7586 117.241H23.4483V121.931H18.7586V117.241ZM28.1379 117.241H32.8276V121.931H28.1379V117.241ZM37.5172 117.241H42.2069V121.931H37.5172V117.241ZM46.8966 117.241H51.5862V121.931H46.8966V117.241ZM56.2759 117.241H60.9655V121.931H56.2759V117.241ZM60.9655 117.241H65.6552V121.931H60.9655V117.241ZM89.1035 117.241H93.7931V121.931H89.1035V117.241ZM112.552 117.241H117.241V121.931H112.552V117.241ZM117.241 117.241H121.931V121.931H117.241V117.241ZM126.621 117.241H131.31V121.931H126.621V117.241ZM0 121.931H4.68966V126.621H0V121.931ZM9.37931 121.931H14.069V126.621H9.37931V121.931ZM14.069 121.931H18.7586V126.621H14.069V121.931ZM18.7586 121.931H23.4483V126.621H18.7586V121.931ZM28.1379 121.931H32.8276V126.621H28.1379V121.931ZM37.5172 121.931H42.2069V126.621H37.5172V121.931ZM42.2069 121.931H46.8966V126.621H42.2069V121.931ZM51.5862 121.931H56.2759V126.621H51.5862V121.931ZM56.2759 121.931H60.9655V126.621H56.2759V121.931ZM79.7241 121.931H84.4138V126.621H79.7241V121.931ZM84.4138 121.931H89.1035V126.621H84.4138V121.931ZM93.7931 121.931H98.4828V126.621H93.7931V121.931ZM107.862 121.931H112.552V126.621H107.862V121.931ZM117.241 121.931H121.931V126.621H117.241V121.931ZM131.31 121.931H136V126.621H131.31V121.931ZM0 126.621H4.68966V131.31H0V126.621ZM28.1379 126.621H32.8276V131.31H28.1379V126.621ZM37.5172 126.621H42.2069V131.31H37.5172V126.621ZM46.8966 126.621H51.5862V131.31H46.8966V126.621ZM56.2759 126.621H60.9655V131.31H56.2759V126.621ZM60.9655 126.621H65.6552V131.31H60.9655V126.621ZM70.3448 126.621H75.0345V131.31H70.3448V126.621ZM84.4138 126.621H89.1035V131.31H84.4138V126.621ZM89.1035 126.621H93.7931V131.31H89.1035V126.621ZM93.7931 126.621H98.4828V131.31H93.7931V126.621ZM103.172 126.621H107.862V131.31H103.172V126.621ZM112.552 126.621H117.241V131.31H112.552V126.621ZM117.241 126.621H121.931V131.31H117.241V126.621ZM126.621 126.621H131.31V131.31H126.621V126.621ZM0 131.31H4.68966V136H0V131.31ZM4.68966 131.31H9.37931V136H4.68966V131.31ZM9.37931 131.31H14.069V136H9.37931V131.31ZM14.069 131.31H18.7586V136H14.069V131.31ZM18.7586 131.31H23.4483V136H18.7586V131.31ZM23.4483 131.31H28.1379V136H23.4483V131.31ZM28.1379 131.31H32.8276V136H28.1379V131.31ZM42.2069 131.31H46.8966V136H42.2069V131.31ZM51.5862 131.31H56.2759V136H51.5862V131.31ZM56.2759 131.31H60.9655V136H56.2759V131.31ZM65.6552 131.31H70.3448V136H65.6552V131.31ZM75.0345 131.31H79.7241V136H75.0345V131.31ZM84.4138 131.31H89.1035V136H84.4138V131.31ZM89.1035 131.31H93.7931V136H89.1035V131.31ZM93.7931 131.31H98.4828V136H93.7931V131.31ZM98.4828 131.31H103.172V136H98.4828V131.31ZM103.172 131.31H107.862V136H103.172V131.31ZM107.862 131.31H112.552V136H107.862V131.31ZM126.621 131.31H131.31V136H126.621V131.31Z" fill="#55371B"/>
</svg>
