<svg width="48" height="48" viewBox="0 0 48 48" fill="none" xmlns="http://www.w3.org/2000/svg">
<circle cx="24" cy="24" r="23.5" stroke="#9E8268"/>
<path d="M25.2505 34C15.6839 34 10.2274 27.2432 10 16H14.792C14.9494 24.2523 18.4822 27.7477 21.2805 28.4685V16H25.7926V23.1171C28.5559 22.8108 31.4591 19.5676 32.4385 16H36.9507C36.5816 17.8502 35.8459 19.6021 34.7897 21.1461C33.7334 22.69 32.3793 23.9928 30.812 24.973C32.5615 25.8686 34.1067 27.1362 35.3457 28.6922C36.5848 30.2483 37.4894 32.0573 38 34H33.0331C32.5748 32.3126 31.6432 30.8022 30.3552 29.6579C29.0672 28.5137 27.4801 27.7865 25.7926 27.5676V34H25.2505Z" fill="#9E8268"/>
</svg>
