<svg width="521" height="255" viewBox="0 0 521 255" fill="none" xmlns="http://www.w3.org/2000/svg">
<g clip-path="url(#clip0_16_1712)">
<path d="M0.0168789 134.422C2.05914 131.73 3.498 128.667 4.33347 125.232C5.16894 121.705 5.58667 117.574 5.58667 112.839V59.9263C5.58667 55.192 5.16894 51.1075 4.33347 47.6728C3.498 44.1453 2.05914 41.0354 0.0168789 38.3434V37.6472H48.7526C58.7782 37.6472 67.0864 39.5502 73.6774 43.3562C80.2683 47.1622 83.5638 53.1497 83.5638 61.3188C83.5638 67.4455 81.4287 72.4119 77.1585 76.218C72.8883 79.9312 67.8291 82.1591 61.9808 82.9017V83.5979C69.1287 84.3406 75.0698 86.8934 79.8041 91.2564C84.6313 95.6194 87.0449 101.421 87.0449 108.662C87.0449 117.945 83.3317 124.675 75.9053 128.853C68.5717 133.03 59.5208 135.119 48.7526 135.119H0.0168789V134.422ZM39.0054 81.5093C44.1111 81.5093 48.0563 79.6991 50.8412 76.0787C53.6261 72.3655 55.0186 67.4455 55.0186 61.3188C55.0186 55.4705 53.719 50.6898 51.1197 46.9766C48.5205 43.2634 45.0858 41.4068 40.8156 41.4068C38.0307 41.4068 35.5707 42.0566 33.4356 43.3562V81.5093H39.0054ZM41.9296 131.359C46.9424 131.359 50.9341 129.409 53.9046 125.511C56.968 121.612 58.4997 115.996 58.4997 108.662C58.4997 101.143 56.8752 95.4338 53.6261 91.5349C50.3771 87.636 45.7356 85.6866 39.7016 85.6866H33.4356V128.992C34.4568 129.734 35.71 130.338 37.1952 130.802C38.7733 131.173 40.3515 131.359 41.9296 131.359Z" fill="#55371B"/>
<path d="M94.9575 134.422C96.35 132.38 97.3711 129.734 98.0209 126.485C98.7635 123.143 99.1349 119.523 99.1349 115.624V84.9904C99.1349 81.0915 98.7635 77.5176 98.0209 74.2685C97.3711 70.9267 96.35 68.2346 94.9575 66.1923V65.4961H129.072V66.1923C127.68 68.2346 126.613 70.9267 125.87 74.2685C125.22 77.5176 124.895 81.0915 124.895 84.9904V112.7L142.44 80.1168C142.44 75.661 141.048 71.0195 138.263 66.1923V65.4961H172.378V66.1923C170.985 68.2346 169.918 70.9267 169.175 74.2685C168.525 77.5176 168.2 81.0915 168.2 84.9904V115.624C168.2 119.523 168.525 123.143 169.175 126.485C169.918 129.734 170.985 132.38 172.378 134.422V135.119H138.263V134.422C139.655 132.38 140.676 129.734 141.326 126.485C142.069 123.143 142.44 119.523 142.44 115.624V87.9145L124.895 120.498C124.895 124.861 126.288 129.502 129.072 134.422V135.119H94.9575V134.422Z" fill="#55371B"/>
<path d="M186.337 134.422C187.729 132.38 188.75 129.734 189.4 126.485C190.143 123.143 190.514 119.523 190.514 115.624V84.9904C190.514 81.0915 190.143 77.5176 189.4 74.2685C188.75 70.9267 187.729 68.2346 186.337 66.1923V65.4961H220.452V66.1923C219.059 68.2346 217.992 70.9267 217.249 74.2685C216.599 77.5176 216.275 81.0915 216.275 84.9904V97.5224H233.819V84.9904C233.819 81.0915 233.448 77.5176 232.705 74.2685C232.056 70.9267 231.034 68.2346 229.642 66.1923V65.4961H263.757V66.1923C262.365 68.2346 261.297 70.9267 260.554 74.2685C259.905 77.5176 259.58 81.0915 259.58 84.9904V115.624C259.58 119.523 259.905 123.143 260.554 126.485C261.297 129.734 262.365 132.38 263.757 134.422V135.119H229.642V134.422C231.034 132.38 232.056 129.734 232.705 126.485C233.448 123.143 233.819 119.523 233.819 115.624V101.004H216.275V115.624C216.275 119.523 216.599 123.143 217.249 126.485C217.992 129.734 219.059 132.38 220.452 134.422V135.119H186.337V134.422Z" fill="#55371B"/>
<path d="M277.716 134.422C279.109 132.38 280.13 129.734 280.78 126.485C281.522 123.143 281.894 119.523 281.894 115.624V84.9904C281.894 81.0915 281.522 77.5176 280.78 74.2685C280.13 70.9267 279.109 68.2346 277.716 66.1923V65.4961H311.831V66.1923C310.439 68.2346 309.371 70.9267 308.629 74.2685C307.979 77.5176 307.654 81.0915 307.654 84.9904V97.5224H325.199V84.9904C325.199 81.0915 324.828 77.5176 324.085 74.2685C323.435 70.9267 322.414 68.2346 321.022 66.1923V65.4961H355.136V66.1923C353.744 68.2346 352.676 70.9267 351.934 74.2685C351.284 77.5176 350.959 81.0915 350.959 84.9904V115.624C350.959 119.523 351.284 123.143 351.934 126.485C352.676 129.734 353.744 132.38 355.136 134.422V135.119H321.022V134.422C322.414 132.38 323.435 129.734 324.085 126.485C324.828 123.143 325.199 119.523 325.199 115.624V101.004H307.654V115.624C307.654 119.523 307.979 123.143 308.629 126.485C309.371 129.734 310.439 132.38 311.831 134.422V135.119H277.716V134.422Z" fill="#55371B"/>
<path d="M434.193 128.156C432.801 130.941 430.48 133.169 427.231 134.84C423.982 136.418 420.315 137.207 416.231 137.207C408.155 137.207 402.631 133.772 399.661 126.903H398.964C395.158 133.772 388.753 137.207 379.749 137.207C373.993 137.207 369.491 135.861 366.242 133.169C362.993 130.477 361.368 126.625 361.368 121.612C361.368 116.413 363.178 112.004 366.799 108.384C370.419 104.763 375.107 102.071 380.863 100.307C386.711 98.4507 392.884 97.5224 399.382 97.5224V91.9526C399.382 86.6613 397.85 82.4376 394.787 79.2814C391.724 76.1251 387.407 74.547 381.837 74.547C377.846 74.547 374.318 75.3825 371.255 77.0534C368.284 78.7244 365.917 81.138 364.153 84.2942H362.761C364.432 77.7961 368.098 72.6904 373.761 68.9772C379.517 65.264 386.293 63.4074 394.091 63.4074C403.838 63.4074 411.45 66.0531 416.927 71.3444C422.404 76.5429 425.142 83.4123 425.142 91.9526V122.586C425.142 126.764 426.628 128.853 429.598 128.853C431.269 128.853 432.569 128.388 433.497 127.46L434.193 128.156ZM393.673 125.371C396.829 125.371 398.732 123.933 399.382 121.055V101.004C395.855 101.375 393.023 102.814 390.888 105.32C388.846 107.827 387.825 111.261 387.825 115.624C387.825 122.122 389.774 125.371 393.673 125.371Z" fill="#55371B"/>
<path d="M456.53 136.511C452.074 136.511 448.268 135.861 445.111 134.562C442.048 133.169 439.82 131.266 438.428 128.853L439.82 128.156C440.748 129.085 441.909 129.549 443.301 129.549C444.879 129.549 446.179 128.713 447.2 127.042C448.314 125.371 449.474 122.772 450.681 119.245C452.445 113.86 455.091 109.59 458.618 106.434C462.146 103.278 466.555 101.7 471.846 101.7V101.004C466.648 100.539 461.728 98.9149 457.087 96.13C452.538 93.3451 450.264 89.1677 450.264 83.5979C450.264 77.7497 452.863 73.2938 458.061 70.2304C463.26 67.0742 469.479 65.4961 476.72 65.4961H521V66.1923C519.607 68.2346 518.54 70.9267 517.797 74.2685C517.148 77.5176 516.823 81.0915 516.823 84.9904V115.624C516.823 119.523 517.148 123.143 517.797 126.485C518.54 129.734 519.607 132.38 521 134.422V135.119H486.885V134.422C488.277 132.38 489.298 129.734 489.948 126.485C490.691 123.143 491.062 119.523 491.062 115.624V103.092H489.948C487.999 103.092 486.189 104.206 484.518 106.434C482.847 108.569 481.129 112.468 479.366 118.131C477.416 124.35 474.631 128.992 471.011 132.055C467.391 135.026 462.563 136.511 456.53 136.511ZM491.062 99.6111V69.6735C490.134 69.2093 488.927 68.9772 487.442 68.9772C484.379 68.9772 481.919 70.3233 480.062 73.0153C478.298 75.6146 477.416 79.3742 477.416 84.2942C477.416 89.307 478.252 93.113 479.923 95.7122C481.594 98.3115 484.007 99.6111 487.163 99.6111H491.062Z" fill="#55371B"/>
<path d="M64.4703 228.194C58.7149 228.194 54.0734 226.987 50.5459 224.574C47.0183 222.16 44.3727 219.236 42.6089 215.801C40.938 212.367 39.4527 208.236 38.1531 203.409C36.9463 199.231 35.8323 196.168 34.8112 194.219C33.7901 192.269 32.3976 191.294 30.6339 191.294H29.9376V207.308C29.9376 211.206 30.2625 214.827 30.9123 218.169C31.655 221.418 32.7225 224.063 34.115 226.106V226.802H0V226.106C1.39245 224.063 2.41358 221.418 3.06339 218.169C3.80603 214.827 4.17734 211.206 4.17734 207.308V176.674C4.17734 172.775 3.80603 169.201 3.06339 165.952C2.41358 162.61 1.39245 159.918 0 157.876V157.179H34.115V157.876C32.7225 159.918 31.655 162.61 30.9123 165.952C30.2625 169.201 29.9376 172.775 29.9376 176.674V188.509H31.0516C32.9082 188.509 34.5327 187.813 35.9252 186.421L45.2546 176.256C49.3391 171.8 51.3813 167.623 51.3813 163.724C51.3813 161.867 50.8708 159.918 49.8496 157.876V157.179H74.2175V157.876C67.0696 160.846 59.5039 166.555 51.5206 175.003L38.7101 188.509C45.4866 188.509 50.9172 189.763 55.0017 192.269C59.179 194.683 62.2424 197.514 64.1919 200.763C66.1413 203.919 67.9515 207.772 69.6224 212.32C70.7364 215.384 71.7575 217.658 72.6858 219.143C73.6141 220.536 74.8209 221.232 76.3062 221.232C77.6986 221.232 79.091 220.536 80.4835 219.143L81.8759 219.84C80.4835 222.624 78.302 224.713 75.3314 226.106C72.3609 227.498 68.7405 228.194 64.4703 228.194Z" fill="#55371B"/>
<path d="M160.034 219.84C158.642 222.624 156.321 224.852 153.072 226.523C149.823 228.101 146.156 228.89 142.071 228.89C133.995 228.89 128.472 225.456 125.501 218.586H124.805C120.999 225.456 114.594 228.89 105.589 228.89C99.8338 228.89 95.3316 227.544 92.0825 224.852C88.8335 222.16 87.209 218.308 87.209 213.295C87.209 208.097 89.0191 203.687 92.6395 200.067C96.2599 196.446 100.948 193.754 106.703 191.991C112.552 190.134 118.725 189.206 125.223 189.206V183.636C125.223 178.345 123.691 174.121 120.628 170.965C117.564 167.808 113.248 166.23 107.678 166.23C103.686 166.23 100.159 167.066 97.0953 168.737C94.1248 170.408 91.7576 172.821 89.9939 175.977H88.6014C90.2723 169.479 93.9391 164.374 99.6018 160.661C105.357 156.947 112.134 155.091 119.932 155.091C129.679 155.091 137.291 157.736 142.768 163.028C148.245 168.226 150.983 175.096 150.983 183.636V214.27C150.983 218.447 152.468 220.536 155.439 220.536C157.11 220.536 158.409 220.072 159.338 219.143L160.034 219.84ZM119.514 217.055C122.67 217.055 124.573 215.616 125.223 212.738V192.687C121.695 193.058 118.864 194.497 116.729 197.003C114.687 199.51 113.665 202.945 113.665 207.308C113.665 213.806 115.615 217.055 119.514 217.055Z" fill="#55371B"/>
<path d="M162.345 253.955C163.738 251.912 164.759 249.22 165.409 245.878C166.151 242.629 166.523 239.055 166.523 235.156V183.357C166.523 178.716 166.059 175.003 165.13 172.218C164.202 169.433 162.809 167.112 160.953 165.256V164.559L191.587 155.091H192.283V166.23H192.979C197.806 158.804 204.583 155.091 213.309 155.091C218.6 155.091 223.288 156.39 227.373 158.99C231.55 161.589 234.799 165.441 237.12 170.547C239.533 175.653 240.74 181.779 240.74 188.927C240.74 196.911 239.255 203.919 236.284 209.953C233.314 215.987 229.276 220.675 224.17 224.017C219.157 227.266 213.68 228.89 207.739 228.89C204.397 228.89 201.38 228.473 198.688 227.637C195.996 226.895 193.861 225.92 192.283 224.713V235.156C192.283 239.055 192.608 242.629 193.258 245.878C194 249.22 195.068 251.912 196.46 253.955V254.651H162.345V253.955ZM201.612 224.017C205.233 224.017 208.018 221.418 209.967 216.219C211.916 211.021 212.891 203.409 212.891 193.383C212.891 184.936 211.87 178.437 209.828 173.889C207.786 169.247 204.861 166.927 201.055 166.927C196.785 166.927 193.861 169.015 192.283 173.193V214.966C193.026 217.751 194.186 219.979 195.764 221.65C197.435 223.228 199.384 224.017 201.612 224.017Z" fill="#55371B"/>
<path d="M266.458 226.106C267.85 224.063 268.872 221.418 269.521 218.169C270.264 214.827 270.635 211.206 270.635 207.308V160.661H269.939C264.276 161.682 259.635 163.91 256.015 167.344C252.394 170.686 249.377 175.653 246.964 182.243H245.571L248.356 157.179H318.675L321.46 182.243H320.067C317.654 175.653 314.637 170.686 311.016 167.344C307.396 163.91 302.754 161.682 297.092 160.661H296.396V207.308C296.396 211.206 296.721 214.827 297.37 218.169C298.113 221.418 299.181 224.063 300.573 226.106V226.802H266.458V226.106Z" fill="#55371B"/>
<path d="M398.451 219.84C397.059 222.624 394.738 224.852 391.489 226.523C388.24 228.101 384.573 228.89 380.489 228.89C372.412 228.89 366.889 225.456 363.918 218.586H363.222C359.416 225.456 353.011 228.89 344.007 228.89C338.251 228.89 333.749 227.544 330.5 224.852C327.251 222.16 325.626 218.308 325.626 213.295C325.626 208.097 327.436 203.687 331.057 200.067C334.677 196.446 339.365 193.754 345.12 191.991C350.969 190.134 357.142 189.206 363.64 189.206V183.636C363.64 178.345 362.108 174.121 359.045 170.965C355.982 167.808 351.665 166.23 346.095 166.23C342.103 166.23 338.576 167.066 335.513 168.737C332.542 170.408 330.175 172.821 328.411 175.977H327.019C328.69 169.479 332.356 164.374 338.019 160.661C343.774 156.947 350.551 155.091 358.349 155.091C368.096 155.091 375.708 157.736 381.185 163.028C386.662 168.226 389.4 175.096 389.4 183.636V214.27C389.4 218.447 390.886 220.536 393.856 220.536C395.527 220.536 396.827 220.072 397.755 219.143L398.451 219.84ZM357.931 217.055C361.087 217.055 362.99 215.616 363.64 212.738V192.687C360.112 193.058 357.281 194.497 355.146 197.003C353.104 199.51 352.083 202.945 352.083 207.308C352.083 213.806 354.032 217.055 357.931 217.055Z" fill="#55371B"/>
<path d="M11.4294 10.4347V10.3531C11.4294 7.43296 9.46902 6.06481 6.26305 6.06481H3.6901V2.36875H10.1633V0.224622H0.994629V14.8251H6.20179C9.55071 14.8251 11.4294 13.2527 11.4294 10.4347ZM3.6901 12.7422V8.02515H6.01801C7.91709 8.02515 8.81558 8.84196 8.81558 10.3326V10.4143C8.81558 11.9254 7.91709 12.7422 6.12011 12.7422H3.6901Z" fill="#55371B"/>
<path d="M20.4542 15.0293C24.8853 15.0293 27.8054 11.8233 27.8054 7.55549V7.39212C27.8054 3.10388 24.8037 0.02042 20.4542 0.02042C16.1251 0.02042 13.062 3.18556 13.062 7.45338V7.61675C13.062 11.8233 15.9821 15.0293 20.4542 15.0293ZM20.495 12.8443C17.8404 12.8443 15.9004 10.7819 15.9004 7.59633V7.43296C15.9004 4.28825 17.5953 2.18496 20.4542 2.18496C23.313 2.18496 24.9874 4.41077 24.9874 7.41254V7.5759C24.9874 10.741 23.2517 12.8443 20.495 12.8443Z" fill="#55371B"/>
<path d="M30.4285 14.8251H33.1444V8.61734H39.6993V14.8251H42.4356V0.224622H39.6993V6.43237H33.1444V0.224622H30.4285V14.8251Z" fill="#55371B"/>
<path d="M47.2134 15.0089C49.6843 15.0089 50.7257 13.4365 51.6855 11.272L56.5659 0.224622H53.9521L50.644 8.00473L47.2543 0.224622H44.3954L49.3576 11.0065C48.7654 12.1705 48.0507 12.6605 47.0501 12.6605C46.4987 12.6605 46.1924 12.5584 46.1107 12.538V14.7842C46.172 14.8251 46.56 15.0089 47.2134 15.0089Z" fill="#55371B"/>
<path d="M63.9406 15.0293C67.4121 15.0293 69.9033 13.2527 70.3322 9.74045H67.6775C67.3917 11.8029 65.9622 12.8239 63.9406 12.8239C61.2452 12.8239 59.6728 10.884 59.6728 7.59633V7.43296C59.6728 4.16573 61.3473 2.16454 63.9202 2.16454C66.0235 2.16454 67.1058 3.16513 67.4121 5.10506H70.1688C69.8421 1.67446 67.2487 0 63.8998 0C59.8362 0 56.814 3.06303 56.814 7.45338V7.61675C56.814 12.1092 59.3665 15.0293 63.9406 15.0293Z" fill="#55371B"/>
<path d="M72.6848 14.8251H75.4007V8.61734H81.9556V14.8251H84.6919V0.224622H81.9556V6.43237H75.4007V0.224622H72.6848V14.8251Z" fill="#55371B"/>
<path d="M93.3904 2.45043L95.5346 9.22994H91.2259L93.3904 2.45043ZM86.8968 14.8251H89.4493L90.5929 11.2107H96.1676L97.3315 14.8251H100.15L95.3304 0.224622H91.7772L86.8968 14.8251Z" fill="#55371B"/>
<path d="M109.629 2.32791V7.04498H107.587C105.77 7.04498 104.81 6.28943 104.81 4.67623V4.59455C104.81 2.87925 105.831 2.32791 107.567 2.32791H109.629ZM107.894 8.96448H109.629V14.8251H112.345V0.224622H107.567C104.422 0.224622 102.135 1.47026 102.135 4.53329V4.61497C102.135 6.94288 103.483 8.14767 105.341 8.53566L100.992 14.8251H103.953L107.894 8.96448Z" fill="#55371B"/>
<path d="M129.611 14.8251H132.348V0.224622H120.545V14.8251H123.281V2.40959H129.611V14.8251Z" fill="#55371B"/>
<path d="M135.68 14.8251H138.396V9.27078H140.438C143.563 9.27078 145.788 7.90263 145.788 4.81917V4.73749C145.788 1.67446 143.644 0.224622 140.377 0.224622H135.68V14.8251ZM138.396 7.31044V2.32791H140.377C142.113 2.32791 143.134 3.00177 143.134 4.73749V4.81917C143.134 6.43237 142.174 7.31044 140.377 7.31044H138.396Z" fill="#55371B"/>
<path d="M154.881 15.0293C159.312 15.0293 162.232 11.8233 162.232 7.55549V7.39212C162.232 3.10388 159.23 0.02042 154.881 0.02042C150.552 0.02042 147.489 3.18556 147.489 7.45338V7.61675C147.489 11.8233 150.409 15.0293 154.881 15.0293ZM154.922 12.8443C152.267 12.8443 150.327 10.7819 150.327 7.59633V7.43296C150.327 4.28825 152.022 2.18496 154.881 2.18496C157.74 2.18496 159.414 4.41077 159.414 7.41254V7.5759C159.414 10.741 157.678 12.8443 154.922 12.8443Z" fill="#55371B"/>
<path d="M164.855 14.8251H167.591V2.40959H173.697V0.224622H164.855V14.8251Z" fill="#55371B"/>
<path d="M176.062 14.8251H178.778V9.27078H180.82C183.944 9.27078 186.17 7.90263 186.17 4.81917V4.73749C186.17 1.67446 184.026 0.224622 180.759 0.224622H176.062V14.8251ZM178.778 7.31044V2.32791H180.759C182.495 2.32791 183.516 3.00177 183.516 4.73749V4.81917C183.516 6.43237 182.556 7.31044 180.759 7.31044H178.778Z" fill="#55371B"/>
<path d="M192.859 2.45043L195.003 9.22994H190.695L192.859 2.45043ZM186.366 14.8251H188.918L190.062 11.2107H195.636L196.8 14.8251H199.618L194.799 0.224622H191.246L186.366 14.8251Z" fill="#55371B"/>
<path d="M201.847 14.8251H204.297V3.79816L208.728 14.8251H209.606L213.956 3.79816V14.8251H216.672V0.224622H213.078L209.321 10.1897L205.482 0.224622H201.847V14.8251Z" fill="#55371B"/>
<path d="M220.014 14.8251H222.464V3.79816L226.895 14.8251H227.773L232.123 3.79816V14.8251H234.839V0.224622H231.245L227.487 10.1897L223.648 0.224622H220.014V14.8251Z" fill="#55371B"/>
<path d="M243.551 2.45043L245.695 9.22994H241.386L243.551 2.45043ZM237.057 14.8251H239.61L240.753 11.2107H246.328L247.492 14.8251H250.31L245.491 0.224622H241.938L237.057 14.8251Z" fill="#55371B"/>
</g>
<defs>
<clipPath id="clip0_16_1712">
<rect width="521" height="255" fill="white"/>
</clipPath>
</defs>
</svg>
