<svg width="1280" height="120" viewBox="0 0 1280 120" fill="none" xmlns="http://www.w3.org/2000/svg">
<g opacity="0.7" clip-path="url(#clip0_16_4382)">
<path fill-rule="evenodd" clip-rule="evenodd" d="M6.95024 118.67H8.2622V0.6875H7.01272C5.88818 9.77748 3.68597 16.6809 0 17.6804V21.0384C3.21741 20.0232 5.59143 15.65 6.95024 7.91888V118.67Z" fill="#9E8268"/>
<path fill-rule="evenodd" clip-rule="evenodd" d="M22.694 0.015625C16.5715 0.015625 13.5415 11.2922 13.5415 28.129V32.0023C13.5415 44.6221 15.1971 54.2119 19.7264 57.0857C15.0877 60.1157 13.5415 69.5337 13.5415 82.6688V90.5718C13.5415 107.409 16.3997 119.529 22.694 119.529C28.9882 119.529 31.8464 107.409 31.8464 90.5718V82.6688C31.8464 69.8616 30.3002 59.9439 25.8489 57.0857C30.1752 54.3993 31.8464 44.2941 31.8464 32.0023V28.129C31.8464 11.2922 28.8789 0.015625 22.694 0.015625ZM22.694 3.37361C27.9886 3.37361 30.5501 13.307 30.5501 28.1133V32.3147C30.5501 47.2929 28.0043 55.5395 22.694 55.5395C17.4618 55.5395 14.8535 47.2929 14.8535 32.3147V28.1133C14.8535 13.307 17.3993 3.37361 22.694 3.37361ZM22.694 58.9131C28.098 58.9131 30.5501 66.9878 30.5501 82.3096V90.5562C30.5501 105.55 28.1761 116.139 22.694 116.139C17.2899 116.139 14.8535 105.55 14.8535 90.5562V82.3096C14.8535 67.0035 17.3524 58.9131 22.694 58.9131Z" fill="#9E8268"/>
<path fill-rule="evenodd" clip-rule="evenodd" d="M54.7902 61.2712V58.2412H46.1688V33.5015H45.1067V58.2412H36.4229V61.2712H45.1067V86.3545H46.1688V61.2712H54.7902Z" fill="#9E8268"/>
<path fill-rule="evenodd" clip-rule="evenodd" d="M84.98 118.669H86.292V0.843262H84.98V52.3375C83.7305 62.9425 81.2472 68.8307 77.2645 68.8307C71.9229 68.8307 69.8925 56.3671 69.8925 42.5759V0.843262H68.5806V42.7634C68.5806 58.4287 70.9546 72.2199 77.0302 72.2199C80.7786 72.2199 83.3869 67.8467 84.9956 58.9285V118.669H84.98Z" fill="#9E8268"/>
<path fill-rule="evenodd" clip-rule="evenodd" d="M91.04 0.843262V118.669H92.352V68.6901H98.287C104.894 68.6901 107.861 59.7563 107.861 41.0766V29.3002C107.861 12.807 105.675 0.858878 99.2398 0.858878H91.04V0.843262ZM92.352 65.1447V4.38867H99.2398C104.831 4.38867 106.549 14.65 106.549 29.1284V41.2484C106.549 57.9133 104.113 65.1447 98.287 65.1447H92.352Z" fill="#9E8268"/>
<path fill-rule="evenodd" clip-rule="evenodd" d="M113.686 57.2417V4.38867H128.243V0.843262H112.375V118.669H128.243V115.14H113.686V60.5997H125.931V57.2417H113.686Z" fill="#9E8268"/>
<path fill-rule="evenodd" clip-rule="evenodd" d="M141.565 0.015625C135.208 0.015625 132.896 13.307 132.896 29.644V34.6887H134.083V29.644C134.083 15.1656 135.989 3.38922 141.518 3.38922C147.047 3.38922 148.952 15.1656 148.952 29.8001V33.3455C148.952 44.9657 145.985 55.5551 141.83 55.5551H139.097V58.9131H141.768C146.172 58.9131 148.952 68.1748 148.952 80.6228V89.7128C148.952 104.191 147.047 116.139 141.518 116.139C135.989 116.139 134.146 104.191 134.146 89.8846V81.1382H132.834V89.7284C132.834 106.222 135.208 119.529 141.565 119.529C147.921 119.529 150.233 106.222 150.233 89.7284V80.6384C150.233 69.3619 148.218 59.7721 144.173 57.0701C147.984 53.8683 150.233 44.1223 150.233 32.8458V29.8001C150.233 13.307 147.921 0.015625 141.565 0.015625Z" fill="#9E8268"/>
<path fill-rule="evenodd" clip-rule="evenodd" d="M178.112 6.40345V118.669H179.424V0.843262H177.394L167.179 112.609L156.949 0.843262H154.935V118.669H156.122V6.40345L166.399 118.326H167.882L178.112 6.40345Z" fill="#9E8268"/>
<path fill-rule="evenodd" clip-rule="evenodd" d="M185.485 57.2417V4.38867H200.042V0.843262H184.173V118.669H200.042V115.14H185.485V60.5997H197.73V57.2417H185.485Z" fill="#9E8268"/>
<path fill-rule="evenodd" clip-rule="evenodd" d="M204.679 0.843262V118.669H205.991V68.6901H211.926C218.517 68.6901 221.5 59.7563 221.5 41.0766V29.3002C221.5 12.807 219.298 0.858878 212.879 0.858878H204.679V0.843262ZM205.991 65.1447V4.38867H212.879C218.47 4.38867 220.188 14.65 220.188 29.1284V41.2484C220.188 57.9133 217.752 65.1447 211.926 65.1447H205.991Z" fill="#9E8268"/>
<path fill-rule="evenodd" clip-rule="evenodd" d="M242.351 61.4431V118.669H243.663V0.843262H242.351V58.0695H227.31V0.843262H226.014V118.669H227.31V61.4431H242.351Z" fill="#9E8268"/>
<path fill-rule="evenodd" clip-rule="evenodd" d="M248.366 89.7284C248.366 106.222 250.865 119.529 257.159 119.529C263.579 119.529 266.078 106.222 266.078 89.7284V29.7845C266.078 13.307 263.579 0 257.159 0C250.865 0 248.366 13.2914 248.366 29.7845V89.7284ZM249.678 29.6283C249.678 15.15 251.63 3.3736 257.159 3.3736C262.751 3.3736 264.766 15.15 264.766 29.6283V89.8846C264.766 104.363 262.751 116.139 257.159 116.139C251.63 116.139 249.678 104.363 249.678 89.8846V29.6283Z" fill="#9E8268"/>
<path fill-rule="evenodd" clip-rule="evenodd" d="M272.076 57.2417V4.38867H286.632V0.843262H270.764V118.669H286.632V115.14H272.076V60.5997H284.321V57.2417H272.076Z" fill="#9E8268"/>
<path fill-rule="evenodd" clip-rule="evenodd" d="M321.693 0.843262H320.272L315.212 42.5916L311.229 75.7497L301.592 0.843262H300.218L310.557 80.6227L308.183 99.8178C306.981 109.408 305.809 115.296 301.889 115.296V118.654C306.762 118.826 308.183 111.422 309.495 99.8022L321.693 0.843262Z" fill="#9E8268"/>
<path fill-rule="evenodd" clip-rule="evenodd" d="M342.563 4.38867V118.669H343.875V0.843262H326.21V118.669H327.538V4.38867H342.563Z" fill="#9E8268"/>
<path fill-rule="evenodd" clip-rule="evenodd" d="M348.559 89.7284C348.559 106.222 351.058 119.529 357.352 119.529C363.771 119.529 366.27 106.222 366.27 89.7284V29.7845C366.27 13.307 363.771 0 357.352 0C351.058 0 348.559 13.2914 348.559 29.7845V89.7284ZM349.871 29.6283C349.871 15.15 351.838 3.3736 357.352 3.3736C362.943 3.3736 364.958 15.15 364.958 29.6283V89.8846C364.958 104.363 362.943 116.139 357.352 116.139C351.823 116.139 349.871 104.363 349.871 89.8846V29.6283Z" fill="#9E8268"/>
<path fill-rule="evenodd" clip-rule="evenodd" d="M381.139 118.669V4.38867H390.229V0.843262H370.737V4.38867H379.827V118.669H381.139Z" fill="#9E8268"/>
<path fill-rule="evenodd" clip-rule="evenodd" d="M394.742 0.843262V118.669H396.054V68.6901H401.989C408.596 68.6901 411.563 59.7563 411.563 41.0766V29.3002C411.563 12.807 409.361 0.858878 402.942 0.858878H394.742V0.843262ZM396.054 65.1447V4.38867H402.942C408.533 4.38867 410.251 14.65 410.251 29.1284V41.2484C410.251 57.9133 407.815 65.1447 401.989 65.1447H396.054Z" fill="#9E8268"/>
<path fill-rule="evenodd" clip-rule="evenodd" d="M417.374 57.2417V4.38867H431.946V0.843262H416.077V118.669H431.946V115.14H417.374V60.5997H429.634V57.2417H417.374Z" fill="#9E8268"/>
<path fill-rule="evenodd" clip-rule="evenodd" d="M437.897 52.1813V4.38867H452.813V0.843262H436.585V118.669H445.254C451.673 118.669 454.234 108.408 454.234 91.0714V77.4365C454.234 58.5849 451.033 52.1969 444.613 52.1969H437.897V52.1813ZM437.897 115.14V55.7111H444.613C450.205 55.7111 452.938 60.4279 452.938 77.2491V91.2276C452.938 106.378 450.861 115.124 445.269 115.124H437.897V115.14Z" fill="#9E8268"/>
<path fill-rule="evenodd" clip-rule="evenodd" d="M478.615 4.38867V118.669H479.974V0.843262H465.542L464.293 90.228C464.168 102.176 464.121 115.311 458.701 115.311V118.841H459.123C465.058 118.341 465.37 104.207 465.605 90.228L466.792 4.38867H478.615Z" fill="#9E8268"/>
<path fill-rule="evenodd" clip-rule="evenodd" d="M486.034 57.2417V4.38867H500.606V0.843262H484.738V118.669H500.606V115.14H486.034V60.5997H498.279V57.2417H486.034Z" fill="#9E8268"/>
<path fill-rule="evenodd" clip-rule="evenodd" d="M521.58 61.4431V118.669H522.876V0.843262H521.58V58.0695H506.539V0.843262H505.228V118.669H506.539V61.4431H521.58Z" fill="#9E8268"/>
<path fill-rule="evenodd" clip-rule="evenodd" d="M544.103 6.57525V118.669H545.336V0.843262H543.556L534.653 67.8311L528.875 111.594V0.843262H527.641V118.669H529.249L536.496 63.8015L544.103 6.57525Z" fill="#9E8268"/>
<path fill-rule="evenodd" clip-rule="evenodd" d="M551.412 57.2417V4.38867H565.968V0.843262H550.1V118.669H565.968V115.14H551.412V60.5997H563.657V57.2417H551.412Z" fill="#9E8268"/>
<path fill-rule="evenodd" clip-rule="evenodd" d="M598.065 90.8844L600.502 118.67H601.814L591.537 0.6875H589.694L579.635 118.67H580.838L583.274 90.8844H598.065ZM590.568 5.06068L597.831 87.5265H583.509L590.568 5.06068Z" fill="#9E8268"/>
<path fill-rule="evenodd" clip-rule="evenodd" d="M626.054 4.38867V118.669H627.428V0.843262H612.981L611.732 90.228C611.607 102.176 611.544 115.311 606.14 115.311V118.841H606.562C612.513 118.341 612.809 104.207 613.044 90.228L614.231 4.38867H626.054Z" fill="#9E8268"/>
<path fill-rule="evenodd" clip-rule="evenodd" d="M650.012 118.669H651.433L637.47 56.5545L650.355 0.843262H648.95L633.487 67.3313V0.843262H632.175V118.669H633.487V73.5631L636.627 60.0999L650.012 118.669Z" fill="#9E8268"/>
<path fill-rule="evenodd" clip-rule="evenodd" d="M655.948 89.7284C655.948 106.222 658.447 119.529 664.757 119.529C671.176 119.529 673.675 106.222 673.675 89.7284V29.7845C673.675 13.307 671.176 0 664.757 0C658.463 0 655.948 13.2914 655.948 29.7845V89.7284ZM657.26 29.6283C657.26 15.15 659.228 3.3736 664.741 3.3736C670.317 3.3736 672.348 15.15 672.348 29.6283V89.8846C672.348 104.363 670.333 116.139 664.741 116.139C659.213 116.139 657.26 104.363 657.26 89.8846V29.6283Z" fill="#9E8268"/>
<path fill-rule="evenodd" clip-rule="evenodd" d="M693.806 4.38867V0.843262H678.359V118.669H679.671V4.38867H693.806Z" fill="#9E8268"/>
<path fill-rule="evenodd" clip-rule="evenodd" d="M698.445 89.7284C698.445 106.222 700.944 119.529 707.238 119.529C713.642 119.529 716.156 106.222 716.156 89.7284V29.7845C716.156 13.307 713.657 0 707.238 0C700.928 0 698.445 13.2914 698.445 29.7845V89.7284ZM699.757 29.6283C699.757 15.15 701.709 3.3736 707.238 3.3736C712.814 3.3736 714.844 15.15 714.844 29.6283V89.8846C714.844 104.363 712.814 116.139 707.238 116.139C701.709 116.139 699.757 104.363 699.757 89.8846V29.6283Z" fill="#9E8268"/>
<path fill-rule="evenodd" clip-rule="evenodd" d="M740.519 4.38867V118.669H741.894V0.843262H727.446L726.197 90.228C726.072 102.176 726.009 115.311 720.605 115.311V118.841H721.012C726.962 118.341 727.259 104.207 727.493 90.228L728.68 4.38867H740.519Z" fill="#9E8268"/>
<path fill-rule="evenodd" clip-rule="evenodd" d="M763.165 64.3013V118.669H764.477V0.843262H756.215C750.03 0.843262 747.656 11.1046 747.656 27.2698V37.8748C747.656 52.3375 749.671 60.2561 754.247 62.5989C749.609 64.6137 747.656 73.2039 747.656 86.1672V104.675C747.656 109.22 747.469 114.937 746.516 118.638H747.937C748.765 114.937 748.953 109.72 748.953 104.675V86.1828C748.953 68.8463 752.639 64.3013 758.043 64.3013H763.165ZM763.165 4.38867V60.7715H758.058C752.295 60.7715 748.968 56.5545 748.968 38.3902V27.6134C748.968 13.3068 750.921 4.38867 756.278 4.38867H763.165Z" fill="#9E8268"/>
<path fill-rule="evenodd" clip-rule="evenodd" d="M778.444 0.843262V118.669H786.831C793.125 118.669 795.624 108.236 795.624 91.5712V81.1381C795.624 67.5031 793.781 57.9133 788.846 55.8985C793.547 53.8837 794.781 45.9652 794.781 32.8456V25.2706C794.781 9.44906 792.829 0.858878 786.769 0.858878H778.444V0.843262ZM779.756 54.3835V4.38867H786.769C792.001 4.38867 793.484 11.62 793.484 25.4112V33.3298C793.484 50.4945 790.939 54.3679 785.16 54.3679H779.756V54.3835ZM779.756 115.14V57.7415H785.753C791.454 57.7415 794.312 63.9577 794.312 80.9663V91.5556C794.312 106.362 792.297 115.124 786.831 115.124H779.756V115.14Z" fill="#9E8268"/>
<path fill-rule="evenodd" clip-rule="evenodd" d="M800.245 0.843262V118.669H801.557V68.6901H807.508C814.099 68.6901 817.082 59.7563 817.082 41.0766V29.3002C817.082 12.807 814.88 0.858878 808.46 0.858878H800.245V0.843262ZM801.557 65.1447V4.38867H808.445C814.036 4.38867 815.754 14.65 815.754 29.1284V41.2484C815.754 57.9133 813.318 65.1447 807.492 65.1447H801.557Z" fill="#9E8268"/>
<path fill-rule="evenodd" clip-rule="evenodd" d="M822.892 57.2417V4.38867H837.464V0.843262H821.58V118.669H837.464V115.14H822.892V60.5997H835.137V57.2417H822.892Z" fill="#9E8268"/>
<path fill-rule="evenodd" clip-rule="evenodd" d="M866.578 135.163V115.14H862.892V0.843262H848.82L847.086 94.9448C846.961 102.848 846.743 109.923 844.884 115.14H841.917V135.163H843.228V118.669H865.282V135.163H866.578ZM850.054 4.38867H861.58V115.14H846.368C848.086 109.751 848.211 102.848 848.382 95.1166L850.054 4.38867Z" fill="#9E8268"/>
<path fill-rule="evenodd" clip-rule="evenodd" d="M887.677 6.57525V118.669H888.926V0.843262H887.146L878.228 67.8311L872.464 111.594V0.843262H871.215V118.669H872.824L880.071 63.8015L887.677 6.57525Z" fill="#9E8268"/>
<path fill-rule="evenodd" clip-rule="evenodd" d="M903.858 118.669V4.38867H912.932V0.843262H893.44V4.38867H902.53V118.669H903.858Z" fill="#9E8268"/>
<path fill-rule="evenodd" clip-rule="evenodd" d="M926.661 0.843262V118.669H935.048C941.343 118.669 943.842 108.236 943.842 91.5712V81.1381C943.842 67.5031 941.998 57.9133 937.063 55.8985C941.764 53.8837 942.998 45.9652 942.998 32.8456V25.2706C942.998 9.44906 941.046 0.858878 934.97 0.858878H926.661V0.843262ZM927.973 54.3835V4.38867H934.986C940.218 4.38867 941.702 11.62 941.702 25.4112V33.3298C941.702 50.4945 939.156 54.3679 933.393 54.3679H927.973V54.3835ZM927.973 115.14V57.7415H933.971C939.687 57.7415 942.53 63.9577 942.53 80.9663V91.5556C942.53 106.362 940.515 115.124 935.048 115.124H927.973V115.14Z" fill="#9E8268"/>
<path fill-rule="evenodd" clip-rule="evenodd" d="M966.722 90.8844L969.158 118.67H970.47L960.193 0.6875H958.35L948.308 118.67H949.495L951.931 90.8844H966.722ZM959.241 5.06068L966.488 87.5265H952.165L959.241 5.06068Z" fill="#9E8268"/>
<path fill-rule="evenodd" clip-rule="evenodd" d="M975.048 0.843262V118.669H1002.97V0.843262H1001.68V115.14H989.667V0.843262H988.355V115.14H976.36V0.843262H975.048Z" fill="#9E8268"/>
<path fill-rule="evenodd" clip-rule="evenodd" d="M1009.03 57.2417V4.38867H1023.61V0.843262H1007.74V118.669H1023.61V115.14H1009.03V60.5997H1021.28V57.2417H1009.03Z" fill="#9E8268"/>
<path fill-rule="evenodd" clip-rule="evenodd" d="M1051.42 6.40345V118.669H1052.72V0.843262H1050.7L1040.47 112.609L1030.26 0.843262H1028.23V118.669H1029.42V6.40345L1039.71 118.326H1041.19L1051.42 6.40345Z" fill="#9E8268"/>
<path fill-rule="evenodd" clip-rule="evenodd" d="M1078.69 0.843262H1077.27L1072.21 42.5916L1068.23 75.7497L1058.61 0.843262H1057.23L1067.57 80.6227L1065.2 99.8178C1064.01 109.408 1062.83 115.296 1058.91 115.296V118.654C1063.78 118.826 1065.2 111.422 1066.51 99.8022L1078.69 0.843262Z" fill="#9E8268"/>
<path fill-rule="evenodd" clip-rule="evenodd" d="M1101.11 0.015625C1094.75 0.015625 1092.44 13.307 1092.44 29.644V34.6887H1093.62V29.644C1093.62 15.1656 1095.53 3.38922 1101.06 3.38922C1106.59 3.38922 1108.49 15.1656 1108.49 29.8001V33.3455C1108.49 44.9657 1105.53 55.5551 1101.36 55.5551H1098.62V58.9131H1101.29C1105.7 58.9131 1108.49 68.1748 1108.49 80.6228V89.7128C1108.49 104.191 1106.59 116.139 1101.06 116.139C1095.53 116.139 1093.69 104.191 1093.69 89.8846V81.1382H1092.38V89.7284C1092.38 106.222 1094.75 119.529 1101.11 119.529C1107.46 119.529 1109.77 106.222 1109.77 89.7284V80.6384C1109.77 69.3619 1107.76 59.7721 1103.71 57.0701C1107.53 53.8683 1109.77 44.1223 1109.77 32.8458V29.8001C1109.77 13.307 1107.46 0.015625 1101.11 0.015625Z" fill="#9E8268"/>
<path fill-rule="evenodd" clip-rule="evenodd" d="M1138.96 135.163V115.14H1135.28V0.843262H1121.21L1119.49 94.9448C1119.36 102.848 1119.13 109.923 1117.29 115.14H1114.32V135.163H1115.63V118.669H1137.68V135.163H1138.96ZM1122.44 4.38867H1133.97V115.14H1118.75C1120.49 109.751 1120.6 102.848 1120.78 95.1166L1122.44 4.38867Z" fill="#9E8268"/>
<path fill-rule="evenodd" clip-rule="evenodd" d="M1143.54 89.7284C1143.54 106.222 1146.04 119.529 1152.35 119.529C1158.75 119.529 1161.27 106.222 1161.27 89.7284V29.7845C1161.27 13.307 1158.77 0 1152.35 0C1146.04 0 1143.54 13.2914 1143.54 29.7845V89.7284ZM1144.84 29.6283C1144.84 15.15 1146.8 3.3736 1152.33 3.3736C1157.91 3.3736 1159.94 15.15 1159.94 29.6283V89.8846C1159.94 104.363 1157.91 116.139 1152.33 116.139C1146.8 116.139 1144.84 104.363 1144.84 89.8846V29.6283Z" fill="#9E8268"/>
<path fill-rule="evenodd" clip-rule="evenodd" d="M1165.94 0.843262V118.669H1167.25V68.6901H1173.18C1179.79 68.6901 1182.76 59.7563 1182.76 41.0766V29.3002C1182.76 12.807 1180.56 0.858878 1174.14 0.858878H1165.94V0.843262ZM1167.25 65.1447V4.38867H1174.14C1179.73 4.38867 1181.45 14.65 1181.45 29.1284V41.2484C1181.45 57.9133 1179.01 65.1447 1173.18 65.1447H1167.25Z" fill="#9E8268"/>
<path fill-rule="evenodd" clip-rule="evenodd" d="M1187.22 89.7284C1187.22 106.222 1189.72 119.529 1196.02 119.529C1202.44 119.529 1204.94 106.222 1204.94 89.7284V29.7845C1204.94 13.307 1202.44 0 1196.02 0C1189.71 0 1187.22 13.2914 1187.22 29.7845V89.7284ZM1188.52 29.6283C1188.52 15.15 1190.49 3.3736 1196 3.3736C1201.59 3.3736 1203.61 15.15 1203.61 29.6283V89.8846C1203.61 104.363 1201.59 116.139 1196 116.139C1190.47 116.139 1188.52 104.363 1188.52 89.8846V29.6283Z" fill="#9E8268"/>
<path fill-rule="evenodd" clip-rule="evenodd" d="M1209.62 0.843262V118.669H1218.01C1224.32 118.669 1226.8 108.236 1226.8 91.5712V81.1381C1226.8 67.5031 1224.96 57.9133 1220.03 55.8985C1224.71 53.8837 1225.96 45.9652 1225.96 32.8456V25.2706C1225.96 9.44906 1224.01 0.858878 1217.95 0.858878H1209.62V0.843262ZM1210.94 54.3835V4.38867H1217.95C1223.18 4.38867 1224.66 11.62 1224.66 25.4112V33.3298C1224.66 50.4945 1222.12 54.3679 1216.34 54.3679H1210.94V54.3835ZM1210.94 115.14V57.7415H1216.95C1222.65 57.7415 1225.51 63.9577 1225.51 80.9663V91.5556C1225.51 106.362 1223.49 115.124 1218.03 115.124H1210.94V115.14Z" fill="#9E8268"/>
<path fill-rule="evenodd" clip-rule="evenodd" d="M1232.75 50.8381V0.843262H1231.44V118.669H1239.6C1246.06 118.669 1248.26 106.721 1248.26 90.228V78.4517C1248.26 59.7719 1245.3 50.8538 1238.64 50.8538H1232.75V50.8381ZM1232.75 115.14V54.3835H1238.63C1244.45 54.3835 1246.95 61.6149 1246.95 78.2799V90.3998C1246.95 104.878 1245.16 115.14 1239.58 115.14H1232.75Z" fill="#9E8268"/>
<path fill-rule="evenodd" clip-rule="evenodd" d="M1271.08 0.015625C1264.72 0.015625 1262.27 13.307 1262.27 29.8001V58.0853H1254.2V0.843408H1252.89V118.67H1254.2V61.4433H1262.27V89.7128C1262.27 106.206 1264.71 119.513 1271.08 119.513C1277.44 119.513 1280 106.206 1280 89.7128V29.7845C1280 13.307 1277.44 0.015625 1271.08 0.015625ZM1271.08 3.37361C1276.61 3.37361 1278.69 15.15 1278.69 29.6283V89.8846C1278.69 104.363 1276.61 116.139 1271.08 116.139C1265.55 116.139 1263.6 104.363 1263.6 89.8846V29.6283C1263.6 15.15 1265.55 3.37361 1271.08 3.37361Z" fill="#9E8268"/>
</g>
<defs>
<clipPath id="clip0_16_4382">
<rect width="1280" height="120" fill="white"/>
</clipPath>
</defs>
</svg>
